<?xml version="1.0"?>
<svg xmlns="http://www.w3.org/2000/svg" version="1.1" width="748.2251586914062pt" height="710.3151245117188pt" viewBox="-32.787593618701976 76.62955825726482 748.2251849485856 710.3151089111906" preserveAspectRatio="none" xmlns:xlink="http://www.w3.org/1999/xlink">
  <defs>
  </defs>
  <path d="M259.4106140136719,180.79129028320312 L301.2444763183594,183.40589904785156 " stroke="#6E6E6E" fill="none" stroke-width="1" stroke-opacity="1" />
  <path d="M306.933349609375,183.76145935058594 L301.1059875488281,185.62156677246094 L301.3829345703125,181.19021606445312 L306.933349609375,183.76145935058594 " stroke="none" fill="#6E6E6E" fill-rule="evenodd" stroke-width="0" fill-opacity="1" />
  <path d="M306.933349609375,183.76145935058594 L301.1059875488281,185.62156677246094 L301.3829345703125,181.19021606445312 L306.933349609375,183.76145935058594 " stroke="#6E6E6E" fill="none" stroke-width="1" stroke-opacity="1" />
  <path d="M244.7925567626953,199.4175567626953 L319.9725036621094,274.5975036621094 " stroke="#6E6E6E" fill="none" stroke-width="1" stroke-opacity="1" />
  <path d="M324.00299072265625,278.62799072265625 L318.4027099609375,276.1672668457031 L321.5422668457031,273.0277099609375 L324.00299072265625,278.62799072265625 " stroke="none" fill="#6E6E6E" fill-rule="evenodd" stroke-width="0" fill-opacity="1" />
  <path d="M324.00299072265625,278.62799072265625 L318.4027099609375,276.1672668457031 L321.5422668457031,273.0277099609375 L324.00299072265625,278.62799072265625 " stroke="#6E6E6E" fill="none" stroke-width="1" stroke-opacity="1" />
  <path d="M144.0087890625,182.41831970214844 L182.4091339111328,180.57215881347656 " stroke="#6E6E6E" fill="none" stroke-width="1" stroke-opacity="1" />
  <path d="M188.10256958007812,180.29843139648438 L182.5157470703125,182.78958129882812 L182.3025360107422,178.35470581054688 L188.10256958007812,180.29843139648438 " stroke="none" fill="#6E6E6E" fill-rule="evenodd" stroke-width="0" fill-opacity="1" />
  <path d="M188.10256958007812,180.29843139648438 L182.5157470703125,182.78958129882812 L182.3025360107422,178.35470581054688 L188.10256958007812,180.29843139648438 " stroke="#6E6E6E" fill="none" stroke-width="1" stroke-opacity="1" />
  <path d="M486.1499938964844,165.0749969482422 L526.0499877929688,165.0749969482422 " stroke="#6E6E6E" fill="none" stroke-width="1" stroke-opacity="1" />
  <path d="M531.75,165.07498168945312 L526.0499877929688,167.29498291015625 L526.0499877929688,162.85499572753906 L531.75,165.07498168945312 " stroke="none" fill="#6E6E6E" fill-rule="evenodd" stroke-width="0" fill-opacity="1" />
  <path d="M531.75,165.07498168945312 L526.0499877929688,167.29498291015625 L526.0499877929688,162.85499572753906 L531.75,165.07498168945312 " stroke="#6E6E6E" fill="none" stroke-width="1" stroke-opacity="1" />
  <path d="M379.4477233886719,178.97544860839844 L406.16070556640625,173.6328582763672 " stroke="#6E6E6E" fill="none" stroke-width="1" stroke-opacity="1" />
  <path d="M411.75,172.51499938964844 L406.5960388183594,175.8097381591797 L405.7253112792969,171.45596313476562 L411.75,172.51499938964844 " stroke="none" fill="#6E6E6E" fill-rule="evenodd" stroke-width="0" fill-opacity="1" />
  <path d="M411.75,172.51499938964844 L406.5960388183594,175.8097381591797 L405.7253112792969,171.45596313476562 L411.75,172.51499938964844 " stroke="#6E6E6E" fill="none" stroke-width="1" stroke-opacity="1" />
  <path d="M492.8999938964844,245.3249969482422 L532.7999877929688,245.3249969482422 " stroke="#6E6E6E" fill="none" stroke-width="1" stroke-opacity="1" />
  <path d="M538.5,245.32498168945312 L532.7999877929688,247.54498291015625 L532.7999877929688,243.10499572753906 L538.5,245.32498168945312 " stroke="none" fill="#6E6E6E" fill-rule="evenodd" stroke-width="0" fill-opacity="1" />
  <path d="M538.5,245.32498168945312 L532.7999877929688,247.54498291015625 L532.7999877929688,243.10499572753906 L538.5,245.32498168945312 " stroke="#6E6E6E" fill="none" stroke-width="1" stroke-opacity="1" />
  <path d="M544.169677734375,182.63455200195312 L492.63299560546875,219.15394592285156 " stroke="#6E6E6E" fill="none" stroke-width="1" stroke-opacity="1" />
  <path d="M487.9822082519531,222.44949340820312 L491.34942626953125,217.3426055908203 L493.9164733886719,220.9652862548828 L487.9822082519531,222.44949340820312 " stroke="none" fill="#6E6E6E" fill-rule="evenodd" stroke-width="0" fill-opacity="1" />
  <path d="M487.9822082519531,222.44949340820312 L491.34942626953125,217.3426055908203 L493.9164733886719,220.9652862548828 L487.9822082519531,222.44949340820312 " stroke="#6E6E6E" fill="none" stroke-width="1" stroke-opacity="1" />
  <path d="M486.9749755859375,418.35919189453125 L512.6265869140625,417.2966613769531 " stroke="#6E6E6E" fill="none" stroke-width="1" stroke-opacity="1" />
  <path d="M518.3217163085938,417.0607604980469 L512.7184448242188,419.5147705078125 L512.5347290039062,415.07855224609375 L518.3217163085938,417.0607604980469 " stroke="none" fill="#6E6E6E" fill-rule="evenodd" stroke-width="0" fill-opacity="1" />
  <path d="M518.3217163085938,417.0607604980469 L512.7184448242188,419.5147705078125 L512.5347290039062,415.07855224609375 L518.3217163085938,417.0607604980469 " stroke="#6E6E6E" fill="none" stroke-width="1" stroke-opacity="1" />
  <path d="M487.9977111816406,490.7329406738281 L527.897705078125,490.7329406738281 " stroke="#6E6E6E" fill="none" stroke-width="1" stroke-opacity="1" />
  <path d="M533.5977172851562,490.7329406738281 L527.897705078125,492.95294189453125 L527.897705078125,488.5129699707031 L533.5977172851562,490.7329406738281 " stroke="none" fill="#6E6E6E" fill-rule="evenodd" stroke-width="0" fill-opacity="1" />
  <path d="M533.5977172851562,490.7329406738281 L527.897705078125,492.95294189453125 L527.897705078125,488.5129699707031 L533.5977172851562,490.7329406738281 " stroke="#6E6E6E" fill="none" stroke-width="1" stroke-opacity="1" />
  <path d="M530.8263549804688,433.1932067871094 L487.4404296875,464.3872375488281 " stroke="#6E6E6E" fill="none" stroke-width="1" stroke-opacity="1" />
  <path d="M482.8124694824219,467.71466064453125 L486.14447021484375,462.5847473144531 L488.73638916015625,466.1896667480469 L482.8124694824219,467.71466064453125 " stroke="none" fill="#6E6E6E" fill-rule="evenodd" stroke-width="0" fill-opacity="1" />
  <path d="M482.8124694824219,467.71466064453125 L486.14447021484375,462.5847473144531 L488.73638916015625,466.1896667480469 L482.8124694824219,467.71466064453125 " stroke="#6E6E6E" fill="none" stroke-width="1" stroke-opacity="1" />
  <path d="M487.0274353027344,561.98291015625 L526.9274291992188,561.98291015625 " stroke="#6E6E6E" fill="none" stroke-width="1" stroke-opacity="1" />
  <path d="M532.62744140625,561.98291015625 L526.9274291992188,564.2029418945312 L526.9274291992188,559.762939453125 L532.62744140625,561.98291015625 " stroke="none" fill="#6E6E6E" fill-rule="evenodd" stroke-width="0" fill-opacity="1" />
  <path d="M532.62744140625,561.98291015625 L526.9274291992188,564.2029418945312 L526.9274291992188,559.762939453125 L532.62744140625,561.98291015625 " stroke="#6E6E6E" fill="none" stroke-width="1" stroke-opacity="1" />
  <path d="M543.5635986328125,506.77349853515625 L489.87158203125,538.3974609375 " stroke="#6E6E6E" fill="none" stroke-width="1" stroke-opacity="1" />
  <path d="M484.9601745605469,541.2902221679688 L488.74493408203125,536.4845581054688 L490.99822998046875,540.310302734375 L484.9601745605469,541.2902221679688 " stroke="none" fill="#6E6E6E" fill-rule="evenodd" stroke-width="0" fill-opacity="1" />
  <path d="M484.9601745605469,541.2902221679688 L488.74493408203125,536.4845581054688 L490.99822998046875,540.310302734375 L484.9601745605469,541.2902221679688 " stroke="#6E6E6E" fill="none" stroke-width="1" stroke-opacity="1" />
  <path d="M488.06591796875,632.2654418945312 L527.9659423828125,632.2654418945312 " stroke="#6E6E6E" fill="none" stroke-width="1" stroke-opacity="1" />
  <path d="M533.6658935546875,632.2654418945312 L527.9658813476562,634.4854736328125 L527.9658813476562,630.0454711914062 L533.6658935546875,632.2654418945312 " stroke="none" fill="#6E6E6E" fill-rule="evenodd" stroke-width="0" fill-opacity="1" />
  <path d="M533.6658935546875,632.2654418945312 L527.9658813476562,634.4854736328125 L527.9658813476562,630.0454711914062 L533.6658935546875,632.2654418945312 " stroke="#6E6E6E" fill="none" stroke-width="1" stroke-opacity="1" />
  <path d="M542.6295776367188,578.0514526367188 L490.8710021972656,608.6304321289062 " stroke="#6E6E6E" fill="none" stroke-width="1" stroke-opacity="1" />
  <path d="M485.9634704589844,611.52978515625 L489.74176025390625,606.7191162109375 L492.0002136230469,610.5418090820312 L485.9634704589844,611.52978515625 " stroke="none" fill="#6E6E6E" fill-rule="evenodd" stroke-width="0" fill-opacity="1" />
  <path d="M485.9634704589844,611.52978515625 L489.74176025390625,606.7191162109375 L492.0002136230469,610.5418090820312 L485.9634704589844,611.52978515625 " stroke="#6E6E6E" fill="none" stroke-width="1" stroke-opacity="1" />
  <path d="M491.06591796875,698.4992065429688 L530.9659423828125,698.4992065429688 " stroke="#6E6E6E" fill="none" stroke-width="1" stroke-opacity="1" />
  <path d="M536.6658935546875,698.4991455078125 L530.9658813476562,700.7191772460938 L530.9658813476562,696.2791748046875 L536.6658935546875,698.4991455078125 " stroke="none" fill="#6E6E6E" fill-rule="evenodd" stroke-width="0" fill-opacity="1" />
  <path d="M536.6658935546875,698.4991455078125 L530.9658813476562,700.7191772460938 L530.9658813476562,696.2791748046875 L536.6658935546875,698.4991455078125 " stroke="#6E6E6E" fill="none" stroke-width="1" stroke-opacity="1" />
  <path d="M543.1660766601562,647.9463500976562 L494.4093017578125,675.547607421875 " stroke="#6E6E6E" fill="none" stroke-width="1" stroke-opacity="1" />
  <path d="M489.4489440917969,678.3556518554688 L493.31561279296875,673.6156616210938 L495.5029296875,677.4794921875 L489.4489440917969,678.3556518554688 " stroke="none" fill="#6E6E6E" fill-rule="evenodd" stroke-width="0" fill-opacity="1" />
  <path d="M489.4489440917969,678.3556518554688 L493.31561279296875,673.6156616210938 L495.5029296875,677.4794921875 L489.4489440917969,678.3556518554688 " stroke="#6E6E6E" fill="none" stroke-width="1" stroke-opacity="1" />
  <path d="M360.5491638183594,277.4703063964844 L426.7857360839844,193.2552490234375 " stroke="#6E6E6E" fill="none" stroke-width="1" stroke-opacity="1" stroke-dasharray="3,1" />
  <path d="M430.3095397949219,188.77499389648438 L428.5306701660156,194.627685546875 L425.040771484375,191.88282775878906 L430.3095397949219,188.77499389648438 " stroke="none" fill="#6E6E6E" fill-rule="evenodd" stroke-width="0" fill-opacity="1" />
  <path d="M430.3095397949219,188.77499389648438 L428.5306701660156,194.627685546875 L425.040771484375,191.88282775878906 L430.3095397949219,188.77499389648438 " stroke="#6E6E6E" fill="none" stroke-width="1" stroke-opacity="1" />
  <path d="M488.64166259765625,328.4698181152344 L528.5416259765625,328.4698181152344 " stroke="#6E6E6E" fill="none" stroke-width="1" stroke-opacity="1" />
  <path d="M534.2416381835938,328.46978759765625 L528.5416259765625,330.6897888183594 L528.5416259765625,326.24981689453125 L534.2416381835938,328.46978759765625 " stroke="none" fill="#6E6E6E" fill-rule="evenodd" stroke-width="0" fill-opacity="1" />
  <path d="M534.2416381835938,328.46978759765625 L528.5416259765625,330.6897888183594 L528.5416259765625,326.24981689453125 L534.2416381835938,328.46978759765625 " stroke="#6E6E6E" fill="none" stroke-width="1" stroke-opacity="1" />
  <path d="M550.100830078125,262.4541320800781 L489.5205993652344,302.9900817871094 " stroke="#6E6E6E" fill="none" stroke-width="1" stroke-opacity="1" />
  <path d="M484.7833251953125,306.1599426269531 L488.2860412597656,301.14501953125 L490.75518798828125,304.8351135253906 L484.7833251953125,306.1599426269531 " stroke="none" fill="#6E6E6E" fill-rule="evenodd" stroke-width="0" fill-opacity="1" />
  <path d="M484.7833251953125,306.1599426269531 L488.2860412597656,301.14501953125 L490.75518798828125,304.8351135253906 L484.7833251953125,306.1599426269531 " stroke="#6E6E6E" fill="none" stroke-width="1" stroke-opacity="1" />
  <path d="M547.4931640625,346.4666442871094 L485.3749084472656,393.1473083496094 " stroke="#6E6E6E" fill="none" stroke-width="1" stroke-opacity="1" />
  <path d="M480.8181457519531,396.5716247558594 L484.04119873046875,391.3725891113281 L486.7085876464844,394.92205810546875 L480.8181457519531,396.5716247558594 " stroke="none" fill="#6E6E6E" fill-rule="evenodd" stroke-width="0" fill-opacity="1" />
  <path d="M480.8181457519531,396.5716247558594 L484.04119873046875,391.3725891113281 L486.7085876464844,394.92205810546875 L480.8181457519531,396.5716247558594 " stroke="#6E6E6E" fill="none" stroke-width="1" stroke-opacity="1" />
  <path d="M144.1499786376953,184.19998168945312 C144.1499786376953,197.2891387939453 127.49497985839844,207.89999389648438 106.95001220703125,207.89999389648438 C86.40502166748047,207.89999389648438 69.75000762939453,197.28915405273438 69.74999237060547,184.20001220703125 L69.74999237060547,184.20001220703125 C69.7499771118164,171.11085510253906 86.40496826171875,160.5 106.94995880126953,160.5 C127.49494934082031,160.49998474121094 144.14996337890625,171.11082458496094 144.1499786376953,184.1999969482422 C144.1499786376953,184.1999969482422 144.1499786376953,184.1999969482422 144.1499786376953,184.1999969482422 " stroke="none" fill="#70AECC" fill-rule="evenodd" stroke-width="0" fill-opacity="1" />
  <text x="2.9555225372314453" y="36.89672088623047" dx="0" dy="0" font-family="Arial" font-size="6pt" fill="#000000" style="text-anchor:start" transform="matrix(0.750000 0.000000 0.000000 0.750000 69.75 160.5)">Floder8_Proje</text>
  <text x="75.99485778808594" y="36.89672088623047" dx="0" dy="0" font-family="Arial" font-size="6pt" fill="#000000" style="text-anchor:start" transform="matrix(0.750000 0.000000 0.000000 0.750000 69.75 160.5)"> ...</text>
  <path d="M144.1499786376953,184.19998168945312 C144.1499786376953,197.2891387939453 127.49497985839844,207.89999389648438 106.95001220703125,207.89999389648438 C86.40502166748047,207.89999389648438 69.75000762939453,197.28915405273438 69.74999237060547,184.20001220703125 L69.74999237060547,184.20001220703125 C69.7499771118164,171.11085510253906 86.40496826171875,160.5 106.94995880126953,160.5 C127.49494934082031,160.49998474121094 144.14996337890625,171.11082458496094 144.1499786376953,184.1999969482422 C144.1499786376953,184.1999969482422 144.1499786376953,184.1999969482422 144.1499786376953,184.1999969482422 " stroke="none" fill="none" stroke-width="0.5" stroke-opacity="0" />
  <path d="M186.75,178.5749969482422 L205.34999084472656,202.27499389648438 L242.54998779296875,202.27499389648438 L261.1499938964844,178.5749969482422 L242.54998779296875,154.875 L205.34999084472656,154.875 L186.75,178.5749969482422 " stroke="none" fill="#F0B871" fill-rule="evenodd" stroke-width="0" fill-opacity="1" />
  <text x="9.293521881103516" y="36.89672088623047" dx="0" dy="0" font-family="Arial" font-size="6pt" fill="#000000" style="text-anchor:start" transform="matrix(0.750000 0.000000 0.000000 0.750000 186.75 154.875)">Iterate Rasters</text>
  <path d="M186.75,178.5749969482422 L205.34999084472656,202.27499389648438 L242.54998779296875,202.27499389648438 L261.1499938964844,178.5749969482422 L242.54998779296875,154.875 L205.34999084472656,154.875 L186.75,178.5749969482422 " stroke="none" fill="none" stroke-width="0.5" stroke-opacity="0" />
  <path d="M381.14996337890625,186.07498168945312 C381.14996337890625,199.1641387939453 364.4949645996094,209.77499389648438 343.95001220703125,209.77499389648438 C323.4049987792969,209.77499389648438 306.75,199.16415405273438 306.7499694824219,186.07501220703125 L306.7499694824219,186.07501220703125 C306.7499694824219,172.98585510253906 323.40496826171875,162.375 343.949951171875,162.375 C364.49493408203125,162.37498474121094 381.14996337890625,172.98582458496094 381.14996337890625,186.0749969482422 C381.14996337890625,186.0749969482422 381.14996337890625,186.0749969482422 381.14996337890625,186.0749969482422 " stroke="none" fill="#83CC7C" fill-rule="evenodd" stroke-width="0" fill-opacity="1" />
  <text x="28.3028564453125" y="36.89672088623047" dx="0" dy="0" font-family="Arial" font-size="6pt" fill="#000000" style="text-anchor:start" transform="matrix(0.750000 0.000000 0.000000 0.750000 306.75 162.375)">Raster</text>
  <path d="M381.14996337890625,186.07498168945312 C381.14996337890625,199.1641387939453 364.4949645996094,209.77499389648438 343.95001220703125,209.77499389648438 C323.4049987792969,209.77499389648438 306.75,199.16415405273438 306.7499694824219,186.07501220703125 L306.7499694824219,186.07501220703125 C306.7499694824219,172.98585510253906 323.40496826171875,162.375 343.949951171875,162.375 C364.49493408203125,162.37498474121094 381.14996337890625,172.98582458496094 381.14996337890625,186.0749969482422 C381.14996337890625,186.0749969482422 381.14996337890625,186.0749969482422 381.14996337890625,186.0749969482422 " stroke="none" fill="none" stroke-width="0.5" stroke-opacity="0" />
  <path d="M381.14996337890625,298.5749816894531 C381.14996337890625,311.66412353515625 364.4949645996094,322.2749938964844 343.95001220703125,322.2749938964844 C323.4049987792969,322.2749938964844 306.75,311.6641540527344 306.7499694824219,298.57501220703125 L306.7499694824219,298.57501220703125 C306.7499694824219,285.48583984375 323.40496826171875,274.875 343.949951171875,274.875 C364.49493408203125,274.8749694824219 381.14996337890625,285.4858093261719 381.14996337890625,298.5749816894531 C381.14996337890625,298.5749816894531 381.14996337890625,298.5749816894531 381.14996337890625,298.5749816894531 " stroke="none" fill="#82CAED" fill-rule="evenodd" stroke-width="0" fill-opacity="1" />
  <text x="29.96952247619629" y="36.89672088623047" dx="0" dy="0" font-family="Arial" font-size="6pt" fill="#000000" style="text-anchor:start" transform="matrix(0.750000 0.000000 0.000000 0.750000 306.75 274.875)">Name</text>
  <path d="M381.14996337890625,298.5749816894531 C381.14996337890625,311.66412353515625 364.4949645996094,322.2749938964844 343.95001220703125,322.2749938964844 C323.4049987792969,322.2749938964844 306.75,311.6641540527344 306.7499694824219,298.57501220703125 L306.7499694824219,298.57501220703125 C306.7499694824219,285.48583984375 323.40496826171875,274.875 343.949951171875,274.875 C364.49493408203125,274.8749694824219 381.14996337890625,285.4858093261719 381.14996337890625,298.5749816894531 C381.14996337890625,298.5749816894531 381.14996337890625,298.5749816894531 381.14996337890625,298.5749816894531 " stroke="none" fill="none" stroke-width="0.5" stroke-opacity="0" />
  <path d="M420.2539367675781,141.375 L477.64605712890625,141.375 L477.6460266113281,141.375 C482.3426208496094,141.37498474121094 486.14996337890625,145.1823272705078 486.14996337890625,149.87892150878906 C486.14996337890625,149.87892150878906 486.14996337890625,149.87893676757812 486.14996337890625,149.87893676757812 L486.1499938964844,149.87893676757812 L486.1499938964844,180.27105712890625 L486.14996337890625,180.27105712890625 C486.14996337890625,184.9676513671875 482.3426513671875,188.77499389648438 477.64605712890625,188.77499389648438 L477.64605712890625,188.77499389648438 L420.2539367675781,188.77499389648438 L420.2539367675781,188.77499389648438 C415.5573425292969,188.77499389648438 411.75,184.9676513671875 411.75,180.27105712890625 L411.75,149.87893676757812 L411.7499694824219,149.87893676757812 C411.7499694824219,145.18234252929688 415.55731201171875,141.375 420.25390625,141.37498474121094 " stroke="none" fill="#F2E279" fill-rule="evenodd" stroke-width="0" fill-opacity="1" />
  <text x="21.63619041442871" y="29.996719360351562" dx="0" dy="0" font-family="Arial" font-size="6pt" fill="#000000" style="text-anchor:start" transform="matrix(0.750000 0.000000 0.000000 0.750000 411.75 141.375)">Raster to </text>
  <text x="24.626190185546875" y="43.79671859741211" dx="0" dy="0" font-family="Arial" font-size="6pt" fill="#000000" style="text-anchor:start" transform="matrix(0.750000 0.000000 0.000000 0.750000 411.75 141.375)">Polygon</text>
  <path d="M420.2539367675781,141.375 L477.64605712890625,141.375 L477.6460266113281,141.375 C482.3426208496094,141.37498474121094 486.14996337890625,145.1823272705078 486.14996337890625,149.87892150878906 C486.14996337890625,149.87892150878906 486.14996337890625,149.87893676757812 486.14996337890625,149.87893676757812 L486.1499938964844,149.87893676757812 L486.1499938964844,180.27105712890625 L486.14996337890625,180.27105712890625 C486.14996337890625,184.9676513671875 482.3426513671875,188.77499389648438 477.64605712890625,188.77499389648438 L477.64605712890625,188.77499389648438 L420.2539367675781,188.77499389648438 L420.2539367675781,188.77499389648438 C415.5573425292969,188.77499389648438 411.75,184.9676513671875 411.75,180.27105712890625 L411.75,149.87893676757812 L411.7499694824219,149.87893676757812 C411.7499694824219,145.18234252929688 415.55731201171875,141.375 420.25390625,141.37498474121094 " stroke="none" fill="none" stroke-width="0.5" stroke-opacity="0" />
  <path d="M606.1499633789062,165.07498168945312 C606.1499633789062,178.1641387939453 589.4949340820312,188.77499389648438 568.9500122070312,188.77499389648438 C548.4049682617188,188.77499389648438 531.75,178.16415405273438 531.7499389648438,165.07501220703125 L531.7499389648438,165.07501220703125 C531.7499389648438,151.98585510253906 548.4049682617188,141.375 568.949951171875,141.375 C589.4949340820312,141.37498474121094 606.1499633789062,151.98582458496094 606.1499633789062,165.0749969482422 C606.1499633789062,165.0749969482422 606.1499633789062,165.0749969482422 606.1499633789062,165.0749969482422 " stroke="none" fill="#83CC7C" fill-rule="evenodd" stroke-width="0" fill-opacity="1" />
  <text x="4.946855545043945" y="29.996719360351562" dx="0" dy="0" font-family="Arial" font-size="6pt" fill="#000000" style="text-anchor:start" transform="matrix(0.750000 0.000000 0.000000 0.750000 531.75 141.375)">Output polygon </text>
  <text x="26.960189819335938" y="43.79671859741211" dx="0" dy="0" font-family="Arial" font-size="6pt" fill="#000000" style="text-anchor:start" transform="matrix(0.750000 0.000000 0.000000 0.750000 531.75 141.375)">features</text>
  <path d="M606.1499633789062,165.07498168945312 C606.1499633789062,178.1641387939453 589.4949340820312,188.77499389648438 568.9500122070312,188.77499389648438 C548.4049682617188,188.77499389648438 531.75,178.16415405273438 531.7499389648438,165.07501220703125 L531.7499389648438,165.07501220703125 C531.7499389648438,151.98585510253906 548.4049682617188,141.375 568.949951171875,141.375 C589.4949340820312,141.37498474121094 606.1499633789062,151.98582458496094 606.1499633789062,165.0749969482422 C606.1499633789062,165.0749969482422 606.1499633789062,165.0749969482422 606.1499633789062,165.0749969482422 " stroke="none" fill="none" stroke-width="0.5" stroke-opacity="0" />
  <path d="M427.0039367675781,221.625 L484.39605712890625,221.625 L484.3960266113281,221.625 C489.0926208496094,221.62498474121094 492.89996337890625,225.4323272705078 492.89996337890625,230.12892150878906 C492.89996337890625,230.12892150878906 492.89996337890625,230.12893676757812 492.89996337890625,230.12893676757812 L492.8999938964844,230.12893676757812 L492.8999938964844,260.52105712890625 L492.89996337890625,260.52105712890625 C492.89996337890625,265.2176513671875 489.0926513671875,269.0249938964844 484.39605712890625,269.0249938964844 L484.39605712890625,269.0249938964844 L427.0039367675781,269.0249938964844 L427.0039367675781,269.0249938964844 C422.3073425292969,269.0249938964844 418.5,265.2176513671875 418.5,260.52105712890625 L418.5,230.12893676757812 L418.4999694824219,230.12893676757812 C418.4999694824219,225.43234252929688 422.30731201171875,221.625 427.00390625,221.62498474121094 " stroke="none" fill="#F2E279" fill-rule="evenodd" stroke-width="0" fill-opacity="1" />
  <text x="7.626189231872559" y="29.996719360351562" dx="0" dy="0" font-family="Arial" font-size="6pt" fill="#000000" style="text-anchor:start" transform="matrix(0.750000 0.000000 0.000000 0.750000 418.5 221.625)">Add Geometry </text>
  <text x="20.96285629272461" y="43.79671859741211" dx="0" dy="0" font-family="Arial" font-size="6pt" fill="#000000" style="text-anchor:start" transform="matrix(0.750000 0.000000 0.000000 0.750000 418.5 221.625)">Attributes</text>
  <path d="M427.0039367675781,221.625 L484.39605712890625,221.625 L484.3960266113281,221.625 C489.0926208496094,221.62498474121094 492.89996337890625,225.4323272705078 492.89996337890625,230.12892150878906 C492.89996337890625,230.12892150878906 492.89996337890625,230.12893676757812 492.89996337890625,230.12893676757812 L492.8999938964844,230.12893676757812 L492.8999938964844,260.52105712890625 L492.89996337890625,260.52105712890625 C492.89996337890625,265.2176513671875 489.0926513671875,269.0249938964844 484.39605712890625,269.0249938964844 L484.39605712890625,269.0249938964844 L427.0039367675781,269.0249938964844 L427.0039367675781,269.0249938964844 C422.3073425292969,269.0249938964844 418.5,265.2176513671875 418.5,260.52105712890625 L418.5,230.12893676757812 L418.4999694824219,230.12893676757812 C418.4999694824219,225.43234252929688 422.30731201171875,221.625 427.00390625,221.62498474121094 " stroke="none" fill="none" stroke-width="0.5" stroke-opacity="0" />
  <path d="M612.8999633789062,245.32498168945312 C612.8999633789062,258.41412353515625 596.2449340820312,269.0249938964844 575.7000122070312,269.0249938964844 C555.1549682617188,269.0249938964844 538.5,258.4141540527344 538.4999389648438,245.32501220703125 L538.4999389648438,245.32501220703125 C538.4999389648438,232.23585510253906 555.1549682617188,221.625 575.699951171875,221.625 C596.2449340820312,221.62498474121094 612.8999633789062,232.23582458496094 612.8999633789062,245.3249969482422 C612.8999633789062,245.3249969482422 612.8999633789062,245.3249969482422 612.8999633789062,245.3249969482422 " stroke="none" fill="#83CC7C" fill-rule="evenodd" stroke-width="0" fill-opacity="1" />
  <text x="2.292855739593506" y="36.89672088623047" dx="0" dy="0" font-family="Arial" font-size="6pt" fill="#000000" style="text-anchor:start" transform="matrix(0.750000 0.000000 0.000000 0.750000 538.5 221.625)">RasterT_chan</text>
  <text x="75.99152374267578" y="36.89672088623047" dx="0" dy="0" font-family="Arial" font-size="6pt" fill="#000000" style="text-anchor:start" transform="matrix(0.750000 0.000000 0.000000 0.750000 538.5 221.625)"> ...</text>
  <path d="M612.8999633789062,245.32498168945312 C612.8999633789062,258.41412353515625 596.2449340820312,269.0249938964844 575.7000122070312,269.0249938964844 C555.1549682617188,269.0249938964844 538.5,258.4141540527344 538.4999389648438,245.32501220703125 L538.4999389648438,245.32501220703125 C538.4999389648438,232.23585510253906 555.1549682617188,221.625 575.699951171875,221.625 C596.2449340820312,221.62498474121094 612.8999633789062,232.23582458496094 612.8999633789062,245.3249969482422 C612.8999633789062,245.3249969482422 612.8999633789062,245.3249969482422 612.8999633789062,245.3249969482422 " stroke="none" fill="none" stroke-width="0.5" stroke-opacity="0" />
  <path d="M421.07891845703125,396.20001220703125 L478.4710388183594,396.20001220703125 L478.47100830078125,396.20001220703125 C483.1676025390625,396.1999816894531 486.9749450683594,400.00732421875 486.9749450683594,404.70391845703125 C486.9749450683594,404.70391845703125 486.9749450683594,404.7039489746094 486.9749450683594,404.7039489746094 L486.9749755859375,404.7039489746094 L486.9749755859375,435.0960693359375 L486.9749450683594,435.0960693359375 C486.9749450683594,439.79266357421875 483.1676330566406,443.6000061035156 478.4710388183594,443.6000061035156 L478.4710388183594,443.6000061035156 L421.07891845703125,443.6000061035156 L421.07891845703125,443.6000061035156 C416.38232421875,443.6000061035156 412.5749816894531,439.79266357421875 412.5749816894531,435.0960693359375 L412.5749816894531,404.7039489746094 L412.574951171875,404.7039489746094 C412.574951171875,400.0073547363281 416.3822937011719,396.20001220703125 421.0788879394531,396.1999816894531 " stroke="none" fill="#F2E279" fill-rule="evenodd" stroke-width="0" fill-opacity="1" />
  <text x="23.3028564453125" y="36.89672088623047" dx="0" dy="0" font-family="Arial" font-size="6pt" fill="#000000" style="text-anchor:start" transform="matrix(0.750000 0.000000 0.000000 0.750000 412.5749816894531 396.20001220703125)">Dissolve</text>
  <path d="M421.07891845703125,396.20001220703125 L478.4710388183594,396.20001220703125 L478.47100830078125,396.20001220703125 C483.1676025390625,396.1999816894531 486.9749450683594,400.00732421875 486.9749450683594,404.70391845703125 C486.9749450683594,404.70391845703125 486.9749450683594,404.7039489746094 486.9749450683594,404.7039489746094 L486.9749755859375,404.7039489746094 L486.9749755859375,435.0960693359375 L486.9749450683594,435.0960693359375 C486.9749450683594,439.79266357421875 483.1676330566406,443.6000061035156 478.4710388183594,443.6000061035156 L478.4710388183594,443.6000061035156 L421.07891845703125,443.6000061035156 L421.07891845703125,443.6000061035156 C416.38232421875,443.6000061035156 412.5749816894531,439.79266357421875 412.5749816894531,435.0960693359375 L412.5749816894531,404.7039489746094 L412.574951171875,404.7039489746094 C412.574951171875,400.0073547363281 416.3822937011719,396.20001220703125 421.0788879394531,396.1999816894531 " stroke="none" fill="none" stroke-width="0.5" stroke-opacity="0" />
  <path d="M592.5999755859375,415.5249938964844 C592.5999755859375,428.6141357421875 575.9449462890625,439.2250061035156 555.4000244140625,439.2250061035156 C534.85498046875,439.2250061035156 518.2000122070312,428.6141662597656 518.199951171875,415.5250244140625 L518.199951171875,415.5250244140625 C518.199951171875,402.43585205078125 534.85498046875,391.82501220703125 555.3999633789062,391.82501220703125 C575.9449462890625,391.8249816894531 592.5999755859375,402.4358215332031 592.5999755859375,415.5249938964844 C592.5999755859375,415.5249938964844 592.5999755859375,415.5249938964844 592.5999755859375,415.5249938964844 " stroke="none" fill="#83CC7C" fill-rule="evenodd" stroke-width="0" fill-opacity="1" />
  <text x="3.962855815887451" y="36.89672088623047" dx="0" dy="0" font-family="Arial" font-size="6pt" fill="#000000" style="text-anchor:start" transform="matrix(0.750000 0.000000 0.000000 0.750000 518.2000122070312 391.82501220703125)">Name_Dissolve</text>
  <path d="M592.5999755859375,415.5249938964844 C592.5999755859375,428.6141357421875 575.9449462890625,439.2250061035156 555.4000244140625,439.2250061035156 C534.85498046875,439.2250061035156 518.2000122070312,428.6141662597656 518.199951171875,415.5250244140625 L518.199951171875,415.5250244140625 C518.199951171875,402.43585205078125 534.85498046875,391.82501220703125 555.3999633789062,391.82501220703125 C575.9449462890625,391.8249816894531 592.5999755859375,402.4358215332031 592.5999755859375,415.5249938964844 C592.5999755859375,415.5249938964844 592.5999755859375,415.5249938964844 592.5999755859375,415.5249938964844 " stroke="none" fill="none" stroke-width="0.5" stroke-opacity="0" />
  <path d="M422.1016540527344,467.032958984375 L479.4937744140625,467.032958984375 L479.4937438964844,467.032958984375 C484.1903381347656,467.0329284667969 487.9976806640625,470.84027099609375 487.9976806640625,475.536865234375 C487.9976806640625,475.536865234375 487.9976806640625,475.5368957519531 487.9976806640625,475.5368957519531 L487.9977111816406,475.5368957519531 L487.9977111816406,505.92901611328125 L487.9976806640625,505.92901611328125 C487.9976806640625,510.6256103515625 484.19036865234375,514.4329223632812 479.4937744140625,514.4329223632812 L479.4937744140625,514.4329223632812 L422.1016540527344,514.4329223632812 L422.1016540527344,514.4329223632812 C417.4050598144531,514.4329223632812 413.59771728515625,510.6256103515625 413.59771728515625,505.92901611328125 L413.59771728515625,475.5368957519531 L413.5976867675781,475.5368957519531 C413.5976867675781,470.8403015136719 417.405029296875,467.032958984375 422.10162353515625,467.0329284667969 " stroke="none" fill="#F2E279" fill-rule="evenodd" stroke-width="0" fill-opacity="1" />
  <text x="0.2861889898777008" y="36.89672088623047" dx="0" dy="0" font-family="Arial" font-size="6pt" fill="#000000" style="text-anchor:start" transform="matrix(0.750000 0.000000 0.000000 0.750000 413.59771728515625 467.032958984375)">Define Projection</text>
  <path d="M422.1016540527344,467.032958984375 L479.4937744140625,467.032958984375 L479.4937438964844,467.032958984375 C484.1903381347656,467.0329284667969 487.9976806640625,470.84027099609375 487.9976806640625,475.536865234375 C487.9976806640625,475.536865234375 487.9976806640625,475.5368957519531 487.9976806640625,475.5368957519531 L487.9977111816406,475.5368957519531 L487.9977111816406,505.92901611328125 L487.9976806640625,505.92901611328125 C487.9976806640625,510.6256103515625 484.19036865234375,514.4329223632812 479.4937744140625,514.4329223632812 L479.4937744140625,514.4329223632812 L422.1016540527344,514.4329223632812 L422.1016540527344,514.4329223632812 C417.4050598144531,514.4329223632812 413.59771728515625,510.6256103515625 413.59771728515625,505.92901611328125 L413.59771728515625,475.5368957519531 L413.5976867675781,475.5368957519531 C413.5976867675781,470.8403015136719 417.405029296875,467.032958984375 422.10162353515625,467.0329284667969 " stroke="none" fill="none" stroke-width="0.5" stroke-opacity="0" />
  <path d="M607.9976806640625,490.7329406738281 C607.9976806640625,503.82208251953125 591.3426513671875,514.4329223632812 570.7977294921875,514.4329223632812 C550.252685546875,514.4329223632812 533.5977172851562,503.8221130371094 533.59765625,490.73297119140625 L533.59765625,490.73297119140625 C533.59765625,477.643798828125 550.252685546875,467.032958984375 570.7976684570312,467.032958984375 C591.3426513671875,467.0329284667969 607.9976806640625,477.6437683105469 607.9976806640625,490.7329406738281 C607.9976806640625,490.7329406738281 607.9976806640625,490.7329406738281 607.9976806640625,490.7329406738281 " stroke="none" fill="#83CC7C" fill-rule="evenodd" stroke-width="0" fill-opacity="1" />
  <text x="3.962855815887451" y="29.996719360351562" dx="0" dy="0" font-family="Arial" font-size="6pt" fill="#000000" style="text-anchor:start" transform="matrix(0.750000 0.000000 0.000000 0.750000 533.5977172851562 467.032958984375)">Name_Dissolve </text>
  <text x="40.97685623168945" y="43.79671859741211" dx="0" dy="0" font-family="Arial" font-size="6pt" fill="#000000" style="text-anchor:start" transform="matrix(0.750000 0.000000 0.000000 0.750000 533.5977172851562 467.032958984375)">(2)</text>
  <path d="M607.9976806640625,490.7329406738281 C607.9976806640625,503.82208251953125 591.3426513671875,514.4329223632812 570.7977294921875,514.4329223632812 C550.252685546875,514.4329223632812 533.5977172851562,503.8221130371094 533.59765625,490.73297119140625 L533.59765625,490.73297119140625 C533.59765625,477.643798828125 550.252685546875,467.032958984375 570.7976684570312,467.032958984375 C591.3426513671875,467.0329284667969 607.9976806640625,477.6437683105469 607.9976806640625,490.7329406738281 C607.9976806640625,490.7329406738281 607.9976806640625,490.7329406738281 607.9976806640625,490.7329406738281 " stroke="none" fill="none" stroke-width="0.5" stroke-opacity="0" />
  <path d="M421.1313781738281,538.282958984375 L478.52349853515625,538.282958984375 L478.5234680175781,538.282958984375 C483.2200622558594,538.2828979492188 487.02740478515625,542.0902709960938 487.02740478515625,546.786865234375 C487.02740478515625,546.786865234375 487.02740478515625,546.786865234375 487.02740478515625,546.786865234375 L487.0274353027344,546.786865234375 L487.0274353027344,577.1790161132812 L487.02740478515625,577.1790161132812 C487.02740478515625,581.8756103515625 483.2200927734375,585.6829223632812 478.52349853515625,585.6829223632812 L478.52349853515625,585.6829223632812 L421.1313781738281,585.6829223632812 L421.1313781738281,585.6829223632812 C416.4347839355469,585.6829223632812 412.62744140625,581.8756103515625 412.62744140625,577.1790161132812 L412.62744140625,546.786865234375 L412.6274108886719,546.786865234375 C412.6274108886719,542.0902709960938 416.43475341796875,538.282958984375 421.13134765625,538.2828979492188 " stroke="none" fill="#F2E279" fill-rule="evenodd" stroke-width="0" fill-opacity="1" />
  <text x="17.959522247314453" y="29.996719360351562" dx="0" dy="0" font-family="Arial" font-size="6pt" fill="#000000" style="text-anchor:start" transform="matrix(0.750000 0.000000 0.000000 0.750000 412.62744140625 538.282958984375)">Add Fields </text>
  <text x="23.636856079101562" y="43.79671859741211" dx="0" dy="0" font-family="Arial" font-size="6pt" fill="#000000" style="text-anchor:start" transform="matrix(0.750000 0.000000 0.000000 0.750000 412.62744140625 538.282958984375)">(multiple)</text>
  <path d="M421.1313781738281,538.282958984375 L478.52349853515625,538.282958984375 L478.5234680175781,538.282958984375 C483.2200622558594,538.2828979492188 487.02740478515625,542.0902709960938 487.02740478515625,546.786865234375 C487.02740478515625,546.786865234375 487.02740478515625,546.786865234375 487.02740478515625,546.786865234375 L487.0274353027344,546.786865234375 L487.0274353027344,577.1790161132812 L487.02740478515625,577.1790161132812 C487.02740478515625,581.8756103515625 483.2200927734375,585.6829223632812 478.52349853515625,585.6829223632812 L478.52349853515625,585.6829223632812 L421.1313781738281,585.6829223632812 L421.1313781738281,585.6829223632812 C416.4347839355469,585.6829223632812 412.62744140625,581.8756103515625 412.62744140625,577.1790161132812 L412.62744140625,546.786865234375 L412.6274108886719,546.786865234375 C412.6274108886719,542.0902709960938 416.43475341796875,538.282958984375 421.13134765625,538.2828979492188 " stroke="none" fill="none" stroke-width="0.5" stroke-opacity="0" />
  <path d="M607.0274047851562,561.98291015625 C607.0274047851562,575.0720825195312 590.3723754882812,585.6829223632812 569.8274536132812,585.6829223632812 C549.2824096679688,585.6829223632812 532.62744140625,575.0720825195312 532.6273803710938,561.9829711914062 L532.6273803710938,561.9829711914062 C532.6273803710938,548.893798828125 549.2824096679688,538.282958984375 569.827392578125,538.282958984375 C590.3723754882812,538.2828979492188 607.0274047851562,548.8937377929688 607.0274047851562,561.98291015625 C607.0274047851562,561.98291015625 607.0274047851562,561.98291015625 607.0274047851562,561.98291015625 " stroke="none" fill="#83CC7C" fill-rule="evenodd" stroke-width="0" fill-opacity="1" />
  <text x="3.962855815887451" y="29.996719360351562" dx="0" dy="0" font-family="Arial" font-size="6pt" fill="#000000" style="text-anchor:start" transform="matrix(0.750000 0.000000 0.000000 0.750000 532.62744140625 538.282958984375)">Name_Dissolve </text>
  <text x="40.97685623168945" y="43.79671859741211" dx="0" dy="0" font-family="Arial" font-size="6pt" fill="#000000" style="text-anchor:start" transform="matrix(0.750000 0.000000 0.000000 0.750000 532.62744140625 538.282958984375)">(3)</text>
  <path d="M607.0274047851562,561.98291015625 C607.0274047851562,575.0720825195312 590.3723754882812,585.6829223632812 569.8274536132812,585.6829223632812 C549.2824096679688,585.6829223632812 532.62744140625,575.0720825195312 532.6273803710938,561.9829711914062 L532.6273803710938,561.9829711914062 C532.6273803710938,548.893798828125 549.2824096679688,538.282958984375 569.827392578125,538.282958984375 C590.3723754882812,538.2828979492188 607.0274047851562,548.8937377929688 607.0274047851562,561.98291015625 C607.0274047851562,561.98291015625 607.0274047851562,561.98291015625 607.0274047851562,561.98291015625 " stroke="none" fill="none" stroke-width="0.5" stroke-opacity="0" />
  <path d="M422.16986083984375,608.5654907226562 L479.5619812011719,608.5654907226562 L479.56195068359375,608.5654907226562 C484.258544921875,608.5654296875 488.0658874511719,612.372802734375 488.0658874511719,617.0693969726562 C488.0658874511719,617.0693969726562 488.0658874511719,617.0693969726562 488.0658874511719,617.0693969726562 L488.06591796875,617.0693969726562 L488.06591796875,647.4615478515625 L488.0658874511719,647.4615478515625 C488.0658874511719,652.1581420898438 484.2585754394531,655.9654541015625 479.5619812011719,655.9654541015625 L479.5619812011719,655.9654541015625 L422.16986083984375,655.9654541015625 L422.16986083984375,655.9654541015625 C417.4732666015625,655.9654541015625 413.6659240722656,652.1581420898438 413.6659240722656,647.4615478515625 L413.6659240722656,617.0693969726562 L413.6658935546875,617.0693969726562 C413.6658935546875,612.372802734375 417.4732360839844,608.5654907226562 422.1698303222656,608.5654296875 " stroke="none" fill="#F2E279" fill-rule="evenodd" stroke-width="0" fill-opacity="1" />
  <text x="20.96285629272461" y="23.096717834472656" dx="0" dy="0" font-family="Arial" font-size="6pt" fill="#000000" style="text-anchor:start" transform="matrix(0.750000 0.000000 0.000000 0.750000 413.6659240722656 608.5654907226562)">Calculate </text>
  <text x="19.300189971923828" y="36.89672088623047" dx="0" dy="0" font-family="Arial" font-size="6pt" fill="#000000" style="text-anchor:start" transform="matrix(0.750000 0.000000 0.000000 0.750000 413.6659240722656 608.5654907226562)">Geometry </text>
  <text x="20.96285629272461" y="50.696720123291016" dx="0" dy="0" font-family="Arial" font-size="6pt" fill="#000000" style="text-anchor:start" transform="matrix(0.750000 0.000000 0.000000 0.750000 413.6659240722656 608.5654907226562)">Attributes</text>
  <path d="M422.16986083984375,608.5654907226562 L479.5619812011719,608.5654907226562 L479.56195068359375,608.5654907226562 C484.258544921875,608.5654296875 488.0658874511719,612.372802734375 488.0658874511719,617.0693969726562 C488.0658874511719,617.0693969726562 488.0658874511719,617.0693969726562 488.0658874511719,617.0693969726562 L488.06591796875,617.0693969726562 L488.06591796875,647.4615478515625 L488.0658874511719,647.4615478515625 C488.0658874511719,652.1581420898438 484.2585754394531,655.9654541015625 479.5619812011719,655.9654541015625 L479.5619812011719,655.9654541015625 L422.16986083984375,655.9654541015625 L422.16986083984375,655.9654541015625 C417.4732666015625,655.9654541015625 413.6659240722656,652.1581420898438 413.6659240722656,647.4615478515625 L413.6659240722656,617.0693969726562 L413.6658935546875,617.0693969726562 C413.6658935546875,612.372802734375 417.4732360839844,608.5654907226562 422.1698303222656,608.5654296875 " stroke="none" fill="none" stroke-width="0.5" stroke-opacity="0" />
  <path d="M608.0658569335938,632.2654418945312 C608.0658569335938,645.3546142578125 591.4108276367188,655.9654541015625 570.8659057617188,655.9654541015625 C550.3208618164062,655.9654541015625 533.6658935546875,645.3546142578125 533.6658325195312,632.2655029296875 L533.6658325195312,632.2655029296875 C533.6658325195312,619.1763305664062 550.3208618164062,608.5654907226562 570.8658447265625,608.5654907226562 C591.4108276367188,608.5654296875 608.0658569335938,619.17626953125 608.0658569335938,632.2654418945312 C608.0658569335938,632.2654418945312 608.0658569335938,632.2654418945312 608.0658569335938,632.2654418945312 " stroke="none" fill="#83CC7C" fill-rule="evenodd" stroke-width="0" fill-opacity="1" />
  <text x="3.962855815887451" y="29.996719360351562" dx="0" dy="0" font-family="Arial" font-size="6pt" fill="#000000" style="text-anchor:start" transform="matrix(0.750000 0.000000 0.000000 0.750000 533.6658935546875 608.5654907226562)">Name_Dissolve </text>
  <text x="40.97685623168945" y="43.79671859741211" dx="0" dy="0" font-family="Arial" font-size="6pt" fill="#000000" style="text-anchor:start" transform="matrix(0.750000 0.000000 0.000000 0.750000 533.6658935546875 608.5654907226562)">(4)</text>
  <path d="M608.0658569335938,632.2654418945312 C608.0658569335938,645.3546142578125 591.4108276367188,655.9654541015625 570.8659057617188,655.9654541015625 C550.3208618164062,655.9654541015625 533.6658935546875,645.3546142578125 533.6658325195312,632.2655029296875 L533.6658325195312,632.2655029296875 C533.6658325195312,619.1763305664062 550.3208618164062,608.5654907226562 570.8658447265625,608.5654907226562 C591.4108276367188,608.5654296875 608.0658569335938,619.17626953125 608.0658569335938,632.2654418945312 C608.0658569335938,632.2654418945312 608.0658569335938,632.2654418945312 608.0658569335938,632.2654418945312 " stroke="none" fill="none" stroke-width="0.5" stroke-opacity="0" />
  <path d="M425.16986083984375,674.7991943359375 L482.5619812011719,674.7991943359375 L482.56195068359375,674.7991943359375 C487.258544921875,674.7991333007812 491.0658874511719,678.6065063476562 491.0658874511719,683.3031005859375 C491.0658874511719,683.3031005859375 491.0658874511719,683.3031005859375 491.0658874511719,683.3031005859375 L491.06591796875,683.3031005859375 L491.06591796875,713.6952514648438 L491.0658874511719,713.6952514648438 C491.0658874511719,718.391845703125 487.2585754394531,722.1991577148438 482.5619812011719,722.1991577148438 L482.5619812011719,722.1991577148438 L425.16986083984375,722.1991577148438 L425.16986083984375,722.1991577148438 C420.4732666015625,722.1991577148438 416.6659240722656,718.391845703125 416.6659240722656,713.6952514648438 L416.6659240722656,683.3031005859375 L416.6658935546875,683.3031005859375 C416.6658935546875,678.6065063476562 420.4732360839844,674.7991943359375 425.1698303222656,674.7991333007812 " stroke="none" fill="#F2E279" fill-rule="evenodd" stroke-width="0" fill-opacity="1" />
  <text x="8.731521606445312" y="36.89672088623047" dx="0" dy="0" font-family="Arial" font-size="6pt" fill="#000000" style="text-anchor:start" transform="matrix(0.750000 0.000000 0.000000 0.750000 416.6659240722656 674.7991943359375)">Table To Excel</text>
  <path d="M425.16986083984375,674.7991943359375 L482.5619812011719,674.7991943359375 L482.56195068359375,674.7991943359375 C487.258544921875,674.7991333007812 491.0658874511719,678.6065063476562 491.0658874511719,683.3031005859375 C491.0658874511719,683.3031005859375 491.0658874511719,683.3031005859375 491.0658874511719,683.3031005859375 L491.06591796875,683.3031005859375 L491.06591796875,713.6952514648438 L491.0658874511719,713.6952514648438 C491.0658874511719,718.391845703125 487.2585754394531,722.1991577148438 482.5619812011719,722.1991577148438 L482.5619812011719,722.1991577148438 L425.16986083984375,722.1991577148438 L425.16986083984375,722.1991577148438 C420.4732666015625,722.1991577148438 416.6659240722656,718.391845703125 416.6659240722656,713.6952514648438 L416.6659240722656,683.3031005859375 L416.6658935546875,683.3031005859375 C416.6658935546875,678.6065063476562 420.4732360839844,674.7991943359375 425.1698303222656,674.7991333007812 " stroke="none" fill="none" stroke-width="0.5" stroke-opacity="0" />
  <path d="M611.0658569335938,698.4991455078125 C611.0658569335938,711.5883178710938 594.4108276367188,722.1991577148438 573.8659057617188,722.1991577148438 C553.3208618164062,722.1991577148438 536.6658935546875,711.5883178710938 536.6658325195312,698.4992065429688 L536.6658325195312,698.4992065429688 C536.6658325195312,685.4100341796875 553.3208618164062,674.7991943359375 573.8658447265625,674.7991943359375 C594.4108276367188,674.7991333007812 611.0658569335938,685.4099731445312 611.0658569335938,698.4991455078125 C611.0658569335938,698.4991455078125 611.0658569335938,698.4991455078125 611.0658569335938,698.4991455078125 " stroke="none" fill="#83CC7C" fill-rule="evenodd" stroke-width="0" fill-opacity="1" />
  <text x="9.30085563659668" y="36.89672088623047" dx="0" dy="0" font-family="Arial" font-size="6pt" fill="#000000" style="text-anchor:start" transform="matrix(0.750000 0.000000 0.000000 0.750000 536.6658935546875 674.7991943359375)">%Name%.xls</text>
  <path d="M611.0658569335938,698.4991455078125 C611.0658569335938,711.5883178710938 594.4108276367188,722.1991577148438 573.8659057617188,722.1991577148438 C553.3208618164062,722.1991577148438 536.6658935546875,711.5883178710938 536.6658325195312,698.4992065429688 L536.6658325195312,698.4992065429688 C536.6658325195312,685.4100341796875 553.3208618164062,674.7991943359375 573.8658447265625,674.7991943359375 C594.4108276367188,674.7991333007812 611.0658569335938,685.4099731445312 611.0658569335938,698.4991455078125 C611.0658569335938,698.4991455078125 611.0658569335938,698.4991455078125 611.0658569335938,698.4991455078125 " stroke="none" fill="none" stroke-width="0.5" stroke-opacity="0" />
  <path d="M422.7455749511719,304.76983642578125 L480.1376953125,304.76983642578125 L480.1376647949219,304.76983642578125 C484.8342590332031,304.7698059082031 488.6416015625,308.5771484375 488.6416015625,313.27374267578125 C488.6416015625,313.27374267578125 488.6416015625,313.2737731933594 488.6416015625,313.2737731933594 L488.6416320800781,313.2737731933594 L488.6416320800781,343.6658935546875 L488.6416015625,343.6658935546875 C488.6416015625,348.36248779296875 484.83428955078125,352.1698303222656 480.1376953125,352.1698303222656 L480.1376953125,352.1698303222656 L422.7455749511719,352.1698303222656 L422.7455749511719,352.1698303222656 C418.0489807128906,352.1698303222656 414.24163818359375,348.36248779296875 414.24163818359375,343.6658935546875 L414.24163818359375,313.2737731933594 L414.2416076660156,313.2737731933594 C414.2416076660156,308.5771789550781 418.0489501953125,304.76983642578125 422.74554443359375,304.7698059082031 " stroke="none" fill="#F2E279" fill-rule="evenodd" stroke-width="0" fill-opacity="1" />
  <text x="29.632856369018555" y="36.89672088623047" dx="0" dy="0" font-family="Arial" font-size="6pt" fill="#000000" style="text-anchor:start" transform="matrix(0.750000 0.000000 0.000000 0.750000 414.24163818359375 304.76983642578125)">Select</text>
  <path d="M422.7455749511719,304.76983642578125 L480.1376953125,304.76983642578125 L480.1376647949219,304.76983642578125 C484.8342590332031,304.7698059082031 488.6416015625,308.5771484375 488.6416015625,313.27374267578125 C488.6416015625,313.27374267578125 488.6416015625,313.2737731933594 488.6416015625,313.2737731933594 L488.6416320800781,313.2737731933594 L488.6416320800781,343.6658935546875 L488.6416015625,343.6658935546875 C488.6416015625,348.36248779296875 484.83428955078125,352.1698303222656 480.1376953125,352.1698303222656 L480.1376953125,352.1698303222656 L422.7455749511719,352.1698303222656 L422.7455749511719,352.1698303222656 C418.0489807128906,352.1698303222656 414.24163818359375,348.36248779296875 414.24163818359375,343.6658935546875 L414.24163818359375,313.2737731933594 L414.2416076660156,313.2737731933594 C414.2416076660156,308.5771789550781 418.0489501953125,304.76983642578125 422.74554443359375,304.7698059082031 " stroke="none" fill="none" stroke-width="0.5" stroke-opacity="0" />
  <path d="M608.6416015625,328.4698181152344 C608.6416015625,341.5589599609375 591.986572265625,352.1698303222656 571.441650390625,352.1698303222656 C550.8966064453125,352.1698303222656 534.2416381835938,341.5589904785156 534.2415771484375,328.4698486328125 L534.2415771484375,328.4698486328125 C534.2415771484375,315.38067626953125 550.8966064453125,304.76983642578125 571.4415893554688,304.76983642578125 C591.986572265625,304.7698059082031 608.6416015625,315.3806457519531 608.6416015625,328.4698181152344 C608.6416015625,328.4698181152344 608.6416015625,328.4698181152344 608.6416015625,328.4698181152344 " stroke="none" fill="#83CC7C" fill-rule="evenodd" stroke-width="0" fill-opacity="1" />
  <text x="5.286855697631836" y="29.996719360351562" dx="0" dy="0" font-family="Arial" font-size="6pt" fill="#000000" style="text-anchor:start" transform="matrix(0.750000 0.000000 0.000000 0.750000 534.2416381835938 304.76983642578125)">Output Feature </text>
  <text x="30.972856521606445" y="43.79671859741211" dx="0" dy="0" font-family="Arial" font-size="6pt" fill="#000000" style="text-anchor:start" transform="matrix(0.750000 0.000000 0.000000 0.750000 534.2416381835938 304.76983642578125)">Class</text>
  <path d="M608.6416015625,328.4698181152344 C608.6416015625,341.5589599609375 591.986572265625,352.1698303222656 571.441650390625,352.1698303222656 C550.8966064453125,352.1698303222656 534.2416381835938,341.5589904785156 534.2415771484375,328.4698486328125 L534.2415771484375,328.4698486328125 C534.2415771484375,315.38067626953125 550.8966064453125,304.76983642578125 571.4415893554688,304.76983642578125 C591.986572265625,304.7698059082031 608.6416015625,315.3806457519531 608.6416015625,328.4698181152344 C608.6416015625,328.4698181152344 608.6416015625,328.4698181152344 608.6416015625,328.4698181152344 " stroke="none" fill="none" stroke-width="0.5" stroke-opacity="0" />
</svg>