<?xml version="1.0"?>
<svg xmlns="http://www.w3.org/2000/svg" version="1.1" width="674.4000244140625pt" height="352.20001220703125pt" viewBox="-337.20000000000005 -176.10000000000002 674.4000000000001 352.20000000000005" preserveAspectRatio="none" xmlns:xlink="http://www.w3.org/1999/xlink">
  <defs>
  </defs>
  <path d="M-73.20000457763672,-20.850000381469727 L-33.30000305175781,-20.850000381469727 " stroke="#6E6E6E" fill="none" stroke-width="1" stroke-opacity="1" />
  <path d="M-27.600000381469727,-20.85000228881836 L-33.30000305175781,-18.630001068115234 L-33.30000305175781,-23.07000160217285 L-27.600000381469727,-20.85000228881836 " stroke="none" fill="#6E6E6E" fill-rule="evenodd" stroke-width="0" fill-opacity="1" />
  <path d="M-27.600000381469727,-20.85000228881836 L-33.30000305175781,-18.630001068115234 L-33.30000305175781,-23.07000160217285 L-27.600000381469727,-20.85000228881836 " stroke="#6E6E6E" fill="none" stroke-width="1" stroke-opacity="1" />
  <path d="M-194.56822204589844,-20.329801559448242 L-153.29989624023438,-20.58485984802246 " stroke="#6E6E6E" fill="none" stroke-width="1" stroke-opacity="1" />
  <path d="M-147.60000610351562,-20.620088577270508 L-153.2861785888672,-18.36490249633789 L-153.31362915039062,-22.80481719970703 L-147.60000610351562,-20.620088577270508 " stroke="none" fill="#6E6E6E" fill-rule="evenodd" stroke-width="0" fill-opacity="1" />
  <path d="M-147.60000610351562,-20.620088577270508 L-153.2861785888672,-18.36490249633789 L-153.31362915039062,-22.80481719970703 L-147.60000610351562,-20.620088577270508 " stroke="#6E6E6E" fill="none" stroke-width="1" stroke-opacity="1" />
  <path d="M168.14999389648438,-20.850000381469727 L208.04998779296875,-20.850000381469727 " stroke="#6E6E6E" fill="none" stroke-width="1" stroke-opacity="1" />
  <path d="M213.75,-20.85000228881836 L208.04998779296875,-18.630001068115234 L208.04998779296875,-23.07000160217285 L213.75,-20.85000228881836 " stroke="none" fill="#6E6E6E" fill-rule="evenodd" stroke-width="0" fill-opacity="1" />
  <path d="M213.75,-20.85000228881836 L208.04998779296875,-18.630001068115234 L208.04998779296875,-23.07000160217285 L213.75,-20.85000228881836 " stroke="#6E6E6E" fill="none" stroke-width="1" stroke-opacity="1" />
  <path d="M46.79999542236328,-20.850000381469727 L88.04999542236328,-20.850000381469727 " stroke="#6E6E6E" fill="none" stroke-width="1" stroke-opacity="1" />
  <path d="M93.75,-20.85000228881836 L88.04999542236328,-18.630001068115234 L88.04999542236328,-23.07000160217285 L93.75,-20.85000228881836 " stroke="none" fill="#6E6E6E" fill-rule="evenodd" stroke-width="0" fill-opacity="1" />
  <path d="M93.75,-20.85000228881836 L88.04999542236328,-18.630001068115234 L88.04999542236328,-23.07000160217285 L93.75,-20.85000228881836 " stroke="#6E6E6E" fill="none" stroke-width="1" stroke-opacity="1" />
  <path d="M130.0235595703125,-72.62720489501953 L130.42396545410156,-50.24909210205078 " stroke="#6E6E6E" fill="none" stroke-width="1" stroke-opacity="1" />
  <path d="M130.52593994140625,-44.54999923706055 L128.20431518554688,-50.209373474121094 L132.64361572265625,-50.28880310058594 L130.52593994140625,-44.54999923706055 " stroke="none" fill="#6E6E6E" fill-rule="evenodd" stroke-width="0" fill-opacity="1" />
  <path d="M130.52593994140625,-44.54999923706055 L128.20431518554688,-50.209373474121094 L132.64361572265625,-50.28880310058594 L130.52593994140625,-44.54999923706055 " stroke="#6E6E6E" fill="none" stroke-width="1" stroke-opacity="1" />
  <path d="M-194.55003356933594,-20.100006103515625 C-194.55003356933594,-7.010860443115234 -211.2050323486328,3.599994659423828 -231.75,3.5999984741210938 C-252.2949981689453,3.6000022888183594 -268.95001220703125,-7.010841369628906 -268.9500427246094,-20.099985122680664 L-268.9500427246094,-20.0999813079834 C-268.9500427246094,-33.18913269042969 -252.2950439453125,-43.799991607666016 -231.75006103515625,-43.79999923706055 C-211.20506286621094,-43.800010681152344 -194.550048828125,-33.18916702270508 -194.55003356933594,-20.100000381469727 C-194.55003356933594,-20.100000381469727 -194.55003356933594,-20.100000381469727 -194.55003356933594,-20.100000381469727 " stroke="none" fill="#70AECC" fill-rule="evenodd" stroke-width="0" fill-opacity="1" />
  <text x="4.618188858032227" y="36.89672088623047" dx="0" dy="0" font-family="Arial" font-size="7.200000171661381pt" fill="#000000" style="text-anchor:start" transform="matrix(0.750000 0.000000 0.000000 0.750000 -268.95001220703125 -43.79999923706055)">shenzhen_svi</text>
  <text x="74.9981918334961" y="36.89672088623047" dx="0" dy="0" font-family="Arial" font-size="7.200000171661381pt" fill="#000000" style="text-anchor:start" transform="matrix(0.750000 0.000000 0.000000 0.750000 -268.95001220703125 -43.79999923706055)"> ...</text>
  <path d="M-194.55003356933594,-20.100006103515625 C-194.55003356933594,-7.010860443115234 -211.2050323486328,3.599994659423828 -231.75,3.5999984741210938 C-252.2949981689453,3.6000022888183594 -268.95001220703125,-7.010841369628906 -268.9500427246094,-20.099985122680664 L-268.9500427246094,-20.0999813079834 C-268.9500427246094,-33.18913269042969 -252.2950439453125,-43.799991607666016 -231.75006103515625,-43.79999923706055 C-211.20506286621094,-43.800010681152344 -194.550048828125,-33.18916702270508 -194.55003356933594,-20.100000381469727 C-194.55003356933594,-20.100000381469727 -194.55003356933594,-20.100000381469727 -194.55003356933594,-20.100000381469727 " stroke="none" fill="none" stroke-width="0.6" stroke-opacity="0" />
  <path d="M-139.0960693359375,-44.54999923706055 L-81.70394897460938,-44.54999923706055 L-81.70396423339844,-44.54999923706055 C-77.00737762451172,-44.55000686645508 -73.20001983642578,-40.742671966552734 -73.20001983642578,-36.04606628417969 C-73.20001983642578,-36.04606628417969 -73.20001983642578,-36.04606246948242 -73.20001983642578,-36.04606246948242 L-73.20001220703125,-36.04606246948242 L-73.20001220703125,-5.653934478759766 L-73.20001983642578,-5.653942108154297 C-73.20001983642578,-0.9573478698730469 -77.00735473632812,2.849994659423828 -81.70394897460938,2.8499984741210938 L-81.70394897460938,2.8499984741210938 L-139.0960693359375,2.8499984741210938 L-139.0960693359375,2.8499984741210938 C-143.79266357421875,2.8499984741210938 -147.60000610351562,-0.9573402404785156 -147.60000610351562,-5.653934478759766 L-147.60000610351562,-36.04606246948242 L-147.6000213623047,-36.046058654785156 C-147.6000213623047,-40.742652893066406 -143.7926788330078,-44.54999923706055 -139.09608459472656,-44.55000305175781 " stroke="none" fill="#F2E279" fill-rule="evenodd" stroke-width="0" fill-opacity="1" />
  <text x="26.308189392089844" y="35.57250213623047" dx="0" dy="0" font-family="Microsoft YaHei UI" font-size="7.200000171661381pt" fill="#000000" style="text-anchor:start" transform="matrix(0.750000 0.000000 0.000000 0.750000 -147.60000610351562 -44.54999923706055)">缓冲区</text>
  <path d="M-139.0960693359375,-44.54999923706055 L-81.70394897460938,-44.54999923706055 L-81.70396423339844,-44.54999923706055 C-77.00737762451172,-44.55000686645508 -73.20001983642578,-40.742671966552734 -73.20001983642578,-36.04606628417969 C-73.20001983642578,-36.04606628417969 -73.20001983642578,-36.04606246948242 -73.20001983642578,-36.04606246948242 L-73.20001220703125,-36.04606246948242 L-73.20001220703125,-5.653934478759766 L-73.20001983642578,-5.653942108154297 C-73.20001983642578,-0.9573478698730469 -77.00735473632812,2.849994659423828 -81.70394897460938,2.8499984741210938 L-81.70394897460938,2.8499984741210938 L-139.0960693359375,2.8499984741210938 L-139.0960693359375,2.8499984741210938 C-143.79266357421875,2.8499984741210938 -147.60000610351562,-0.9573402404785156 -147.60000610351562,-5.653934478759766 L-147.60000610351562,-36.04606246948242 L-147.6000213623047,-36.046058654785156 C-147.6000213623047,-40.742652893066406 -143.7926788330078,-44.54999923706055 -139.09608459472656,-44.55000305175781 " stroke="none" fill="none" stroke-width="0.6" stroke-opacity="0" />
  <path d="M46.799983978271484,-20.850006103515625 C46.799983978271484,-7.760860443115234 30.14497947692871,2.849994659423828 9.600011825561523,2.8499984741210938 C-10.94497299194336,2.8500022888183594 -27.599987030029297,-7.760841369628906 -27.600004196166992,-20.849985122680664 L-27.600006103515625,-20.8499813079834 C-27.60002326965332,-33.93913269042969 -10.945026397705078,-44.549991607666016 9.59996223449707,-44.54999923706055 C30.14495277404785,-44.550010681152344 46.79996109008789,-33.93916702270508 46.799983978271484,-20.850000381469727 C46.799983978271484,-20.850000381469727 46.799983978271484,-20.850000381469727 46.799983978271484,-20.850000381469727 " stroke="none" fill="#83CC7C" fill-rule="evenodd" stroke-width="0" fill-opacity="1" />
  <text x="4.618188858032227" y="36.89672088623047" dx="0" dy="0" font-family="Arial" font-size="7.200000171661381pt" fill="#000000" style="text-anchor:start" transform="matrix(0.750000 0.000000 0.000000 0.750000 -27.600000381469727 -44.54999923706055)">shenzhen_svi</text>
  <text x="74.9981918334961" y="36.89672088623047" dx="0" dy="0" font-family="Arial" font-size="7.200000171661381pt" fill="#000000" style="text-anchor:start" transform="matrix(0.750000 0.000000 0.000000 0.750000 -27.600000381469727 -44.54999923706055)"> ...</text>
  <path d="M46.799983978271484,-20.850006103515625 C46.799983978271484,-7.760860443115234 30.14497947692871,2.849994659423828 9.600011825561523,2.8499984741210938 C-10.94497299194336,2.8500022888183594 -27.599987030029297,-7.760841369628906 -27.600004196166992,-20.849985122680664 L-27.600006103515625,-20.8499813079834 C-27.60002326965332,-33.93913269042969 -10.945026397705078,-44.549991607666016 9.59996223449707,-44.54999923706055 C30.14495277404785,-44.550010681152344 46.79996109008789,-33.93916702270508 46.799983978271484,-20.850000381469727 C46.799983978271484,-20.850000381469727 46.799983978271484,-20.850000381469727 46.799983978271484,-20.850000381469727 " stroke="none" fill="none" stroke-width="0.6" stroke-opacity="0" />
  <path d="M102.25393676757812,-44.54999923706055 L159.64605712890625,-44.54999923706055 L159.6460418701172,-44.54999923706055 C164.34262084960938,-44.55000686645508 168.1499786376953,-40.742671966552734 168.1499786376953,-36.04606628417969 C168.1499786376953,-36.04606628417969 168.1499786376953,-36.04606246948242 168.1499786376953,-36.04606246948242 L168.14999389648438,-36.04606246948242 L168.14999389648438,-5.653934478759766 L168.1499786376953,-5.653942108154297 C168.1499786376953,-0.9573478698730469 164.3426513671875,2.849994659423828 159.64605712890625,2.8499984741210938 L159.64605712890625,2.8499984741210938 L102.25393676757812,2.8499984741210938 L102.25393676757812,2.8499984741210938 C97.55734252929688,2.8499984741210938 93.75,-0.9573402404785156 93.75,-5.653934478759766 L93.75,-36.04606246948242 L93.74999237060547,-36.046058654785156 C93.74999237060547,-40.742652893066406 97.55732727050781,-44.54999923706055 102.25392150878906,-44.55000305175781 " stroke="none" fill="#F2E279" fill-rule="evenodd" stroke-width="0" fill-opacity="1" />
  <text x="2.3081889152526855" y="28.672500610351562" dx="0" dy="0" font-family="Microsoft YaHei UI" font-size="7.200000171661381pt" fill="#000000" style="text-anchor:start" transform="matrix(0.750000 0.000000 0.000000 0.750000 93.75 -44.54999923706055)">以表格显示分区</text>
  <text x="32.308189392089844" y="42.47249984741211" dx="0" dy="0" font-family="Microsoft YaHei UI" font-size="7.200000171661381pt" fill="#000000" style="text-anchor:start" transform="matrix(0.750000 0.000000 0.000000 0.750000 93.75 -44.54999923706055)">统计</text>
  <path d="M102.25393676757812,-44.54999923706055 L159.64605712890625,-44.54999923706055 L159.6460418701172,-44.54999923706055 C164.34262084960938,-44.55000686645508 168.1499786376953,-40.742671966552734 168.1499786376953,-36.04606628417969 C168.1499786376953,-36.04606628417969 168.1499786376953,-36.04606246948242 168.1499786376953,-36.04606246948242 L168.14999389648438,-36.04606246948242 L168.14999389648438,-5.653934478759766 L168.1499786376953,-5.653942108154297 C168.1499786376953,-0.9573478698730469 164.3426513671875,2.849994659423828 159.64605712890625,2.8499984741210938 L159.64605712890625,2.8499984741210938 L102.25393676757812,2.8499984741210938 L102.25393676757812,2.8499984741210938 C97.55734252929688,2.8499984741210938 93.75,-0.9573402404785156 93.75,-5.653934478759766 L93.75,-36.04606246948242 L93.74999237060547,-36.046058654785156 C93.74999237060547,-40.742652893066406 97.55732727050781,-44.54999923706055 102.25392150878906,-44.55000305175781 " stroke="none" fill="none" stroke-width="0.6" stroke-opacity="0" />
  <path d="M288.14996337890625,-20.850006103515625 C288.14996337890625,-7.760860443115234 271.4949645996094,2.849994659423828 250.95001220703125,2.8499984741210938 C230.40501403808594,2.8500022888183594 213.75,-7.760841369628906 213.74998474121094,-20.849985122680664 L213.74998474121094,-20.8499813079834 C213.74996948242188,-33.93913269042969 230.40496826171875,-44.549991607666016 250.949951171875,-44.54999923706055 C271.49493408203125,-44.550010681152344 288.14996337890625,-33.93916702270508 288.14996337890625,-20.850000381469727 C288.14996337890625,-20.850000381469727 288.14996337890625,-20.850000381469727 288.14996337890625,-20.850000381469727 " stroke="none" fill="#83CC7C" fill-rule="evenodd" stroke-width="0" fill-opacity="1" />
  <text x="3.6188554763793945" y="36.89672088623047" dx="0" dy="0" font-family="Arial" font-size="7.200000171661381pt" fill="#000000" style="text-anchor:start" transform="matrix(0.750000 0.000000 0.000000 0.750000 213.75 -44.54999923706055)">ZonalSt_shen</text>
  <text x="75.33152770996094" y="36.89672088623047" dx="0" dy="0" font-family="Arial" font-size="7.200000171661381pt" fill="#000000" style="text-anchor:start" transform="matrix(0.750000 0.000000 0.000000 0.750000 213.75 -44.54999923706055)"> ...</text>
  <path d="M288.14996337890625,-20.850006103515625 C288.14996337890625,-7.760860443115234 271.4949645996094,2.849994659423828 250.95001220703125,2.8499984741210938 C230.40501403808594,2.8500022888183594 213.75,-7.760841369628906 213.74998474121094,-20.849985122680664 L213.74998474121094,-20.8499813079834 C213.74996948242188,-33.93913269042969 230.40496826171875,-44.549991607666016 250.949951171875,-44.54999923706055 C271.49493408203125,-44.550010681152344 288.14996337890625,-33.93916702270508 288.14996337890625,-20.850000381469727 C288.14996337890625,-20.850000381469727 288.14996337890625,-20.850000381469727 288.14996337890625,-20.850000381469727 " stroke="none" fill="none" stroke-width="0.6" stroke-opacity="0" />
  <path d="M166.79998779296875,-96.30001068115234 C166.79998779296875,-83.21086120605469 150.1449737548828,-72.60000610351562 129.60000610351562,-72.60000610351562 C109.05502319335938,-72.5999984741211 92.40000915527344,-83.21084594726562 92.39999389648438,-96.29998779296875 L92.39999389648438,-96.29998779296875 C92.39997863769531,-109.3891372680664 109.05496978759766,-119.99999237060547 129.59996032714844,-120 C150.1449432373047,-120.00001525878906 166.79995727539062,-109.38916778564453 166.79998779296875,-96.30000305175781 C166.79998779296875,-96.30000305175781 166.79998779296875,-96.30000305175781 166.79998779296875,-96.30000305175781 " stroke="none" fill="#70AECC" fill-rule="evenodd" stroke-width="0" fill-opacity="1" />
  <text x="9.296854972839355" y="36.89672088623047" dx="0" dy="0" font-family="Arial" font-size="7.200000171661381pt" fill="#000000" style="text-anchor:start" transform="matrix(0.750000 0.000000 0.000000 0.750000 92.4000015258789 -120)">reclas_raste.tif</text>
  <path d="M166.79998779296875,-96.30001068115234 C166.79998779296875,-83.21086120605469 150.1449737548828,-72.60000610351562 129.60000610351562,-72.60000610351562 C109.05502319335938,-72.5999984741211 92.40000915527344,-83.21084594726562 92.39999389648438,-96.29998779296875 L92.39999389648438,-96.29998779296875 C92.39997863769531,-109.3891372680664 109.05496978759766,-119.99999237060547 129.59996032714844,-120 C150.1449432373047,-120.00001525878906 166.79995727539062,-109.38916778564453 166.79998779296875,-96.30000305175781 C166.79998779296875,-96.30000305175781 166.79998779296875,-96.30000305175781 166.79998779296875,-96.30000305175781 " stroke="none" fill="none" stroke-width="0.6" stroke-opacity="0" />
</svg>