<?xml version="1.0"?>
<svg xmlns="http://www.w3.org/2000/svg" version="1.1" width="1103.4583740234375pt" height="696.29833984375pt" viewBox="-54.86191348966871 -278.6497834482923 1103.458361491825 696.298349963434" preserveAspectRatio="none" xmlns:xlink="http://www.w3.org/1999/xlink">
  <defs>
  </defs>
  <path d="M178.79998779296875,38.69999694824219 L188.09999084472656,38.69999694824219 " stroke="#6E6E6E" fill="none" stroke-width="1" stroke-opacity="1" />
  <path d="M193.79998779296875,38.69999694824219 L188.0999755859375,40.91999816894531 L188.0999755859375,36.47999954223633 L193.79998779296875,38.69999694824219 " stroke="none" fill="#6E6E6E" fill-rule="evenodd" stroke-width="0" fill-opacity="1" />
  <path d="M193.79998779296875,38.69999694824219 L188.0999755859375,40.91999816894531 L188.0999755859375,36.47999954223633 L193.79998779296875,38.69999694824219 " stroke="#6E6E6E" fill="none" stroke-width="1" stroke-opacity="1" />
  <path d="M60.80851745605469,38.223236083984375 L98.7000961303711,38.44683837890625 " stroke="#6E6E6E" fill="none" stroke-width="1" stroke-opacity="1" />
  <path d="M104.39999389648438,38.48047637939453 L98.68699645996094,40.66680145263672 L98.71319580078125,36.22687911987305 L104.39999389648438,38.48047637939453 " stroke="none" fill="#6E6E6E" fill-rule="evenodd" stroke-width="0" fill-opacity="1" />
  <path d="M104.39999389648438,38.48047637939453 L98.68699645996094,40.66680145263672 L98.71319580078125,36.22687911987305 L104.39999389648438,38.48047637939453 " stroke="#6E6E6E" fill="none" stroke-width="1" stroke-opacity="1" />
  <path d="M178.79998779296875,101.0999984741211 L188.09999084472656,101.0999984741211 " stroke="#6E6E6E" fill="none" stroke-width="1" stroke-opacity="1" />
  <path d="M193.79998779296875,101.09999084472656 L188.0999755859375,103.31999206542969 L188.0999755859375,98.87999725341797 L193.79998779296875,101.09999084472656 " stroke="none" fill="#6E6E6E" fill-rule="evenodd" stroke-width="0" fill-opacity="1" />
  <path d="M193.79998779296875,101.09999084472656 L188.0999755859375,103.31999206542969 L188.0999755859375,98.87999725341797 L193.79998779296875,101.09999084472656 " stroke="#6E6E6E" fill="none" stroke-width="1" stroke-opacity="1" />
  <path d="M64.18403625488281,99.03462982177734 L98.7020263671875,99.95553588867188 " stroke="#6E6E6E" fill="none" stroke-width="1" stroke-opacity="1" />
  <path d="M104.39999389648438,100.1075439453125 L98.64281463623047,102.17473602294922 L98.76122283935547,97.73631286621094 L104.39999389648438,100.1075439453125 " stroke="none" fill="#6E6E6E" fill-rule="evenodd" stroke-width="0" fill-opacity="1" />
  <path d="M104.39999389648438,100.1075439453125 L98.64281463623047,102.17473602294922 L98.76122283935547,97.73631286621094 L104.39999389648438,100.1075439453125 " stroke="#6E6E6E" fill="none" stroke-width="1" stroke-opacity="1" />
  <path d="M43.15477752685547,55.274566650390625 L99.49360656738281,81.49982452392578 " stroke="#6E6E6E" fill="none" stroke-width="1" stroke-opacity="1" />
  <path d="M104.66117095947266,83.90528869628906 L98.5567398071289,83.51245880126953 L100.43046569824219,79.48719024658203 L104.66117095947266,83.90528869628906 " stroke="none" fill="#6E6E6E" fill-rule="evenodd" stroke-width="0" fill-opacity="1" />
  <path d="M104.66117095947266,83.90528869628906 L98.5567398071289,83.51245880126953 L100.43046569824219,79.48719024658203 L104.66117095947266,83.90528869628906 " stroke="#6E6E6E" fill="none" stroke-width="1" stroke-opacity="1" />
  <path d="M367.28070068359375,98.92520904541016 L385.97857666015625,98.92520904541016 " stroke="#6E6E6E" fill="none" stroke-width="1" stroke-opacity="1" />
  <path d="M391.6785888671875,98.92520141601562 L385.97857666015625,101.14520263671875 L385.97857666015625,96.70520782470703 L391.6785888671875,98.92520141601562 " stroke="none" fill="#6E6E6E" fill-rule="evenodd" stroke-width="0" fill-opacity="1" />
  <path d="M391.6785888671875,98.92520141601562 L385.97857666015625,101.14520263671875 L385.97857666015625,96.70520782470703 L391.6785888671875,98.92520141601562 " stroke="#6E6E6E" fill="none" stroke-width="1" stroke-opacity="1" />
  <path d="M257.8620300292969,55.02781677246094 L290.4393310546875,74.8296127319336 " stroke="#6E6E6E" fill="none" stroke-width="1" stroke-opacity="1" />
  <path d="M295.31011962890625,77.79026794433594 L289.2862548828125,76.72665405273438 L291.5924377441406,72.93257141113281 L295.31011962890625,77.79026794433594 " stroke="none" fill="#6E6E6E" fill-rule="evenodd" stroke-width="0" fill-opacity="1" />
  <path d="M295.31011962890625,77.79026794433594 L289.2862548828125,76.72665405273438 L291.5924377441406,72.93257141113281 L295.31011962890625,77.79026794433594 " stroke="#6E6E6E" fill="none" stroke-width="1" stroke-opacity="1" />
  <path d="M268.1353759765625,100.28488159179688 L287.18206787109375,99.8668212890625 " stroke="#6E6E6E" fill="none" stroke-width="1" stroke-opacity="1" />
  <path d="M292.8807067871094,99.74173736572266 L287.23077392578125,102.0862808227539 L287.13336181640625,97.64735412597656 L292.8807067871094,99.74173736572266 " stroke="none" fill="#6E6E6E" fill-rule="evenodd" stroke-width="0" fill-opacity="1" />
  <path d="M292.8807067871094,99.74173736572266 L287.23077392578125,102.0862808227539 L287.13336181640625,97.64735412597656 L292.8807067871094,99.74173736572266 " stroke="#6E6E6E" fill="none" stroke-width="1" stroke-opacity="1" />
  <path d="M557.7572631835938,98.98047637939453 L570.0613403320312,98.8572998046875 " stroke="#6E6E6E" fill="none" stroke-width="1" stroke-opacity="1" />
  <path d="M575.7610473632812,98.80024719238281 L570.08349609375,101.07718658447266 L570.0390625,96.63741302490234 L575.7610473632812,98.80024719238281 " stroke="none" fill="#6E6E6E" fill-rule="evenodd" stroke-width="0" fill-opacity="1" />
  <path d="M575.7610473632812,98.80024719238281 L570.08349609375,101.07718658447266 L570.0390625,96.63741302490234 L575.7610473632812,98.80024719238281 " stroke="#6E6E6E" fill="none" stroke-width="1" stroke-opacity="1" />
  <path d="M466.0648498535156,99.09867095947266 L477.6573486328125,99.15274047851562 " stroke="#6E6E6E" fill="none" stroke-width="1" stroke-opacity="1" />
  <path d="M483.3572692871094,99.17932891845703 L477.64697265625,101.37271881103516 L477.6676940917969,96.93276977539062 L483.3572692871094,99.17932891845703 " stroke="none" fill="#6E6E6E" fill-rule="evenodd" stroke-width="0" fill-opacity="1" />
  <path d="M483.3572692871094,99.17932891845703 L477.64697265625,101.37271881103516 L477.6676940917969,96.93276977539062 L483.3572692871094,99.17932891845703 " stroke="#6E6E6E" fill="none" stroke-width="1" stroke-opacity="1" />
  <path d="M745.6259155273438,39.404850006103516 L752.2367553710938,39.404850006103516 " stroke="#6E6E6E" fill="none" stroke-width="1" stroke-opacity="1" />
  <path d="M757.9367065429688,39.40484619140625 L752.2367553710938,41.624847412109375 L752.2367553710938,37.18484878540039 L757.9367065429688,39.40484619140625 " stroke="none" fill="#6E6E6E" fill-rule="evenodd" stroke-width="0" fill-opacity="1" />
  <path d="M757.9367065429688,39.40484619140625 L752.2367553710938,41.624847412109375 L752.2367553710938,37.18484878540039 L757.9367065429688,39.40484619140625 " stroke="#6E6E6E" fill="none" stroke-width="1" stroke-opacity="1" />
  <path d="M268.19561767578125,38.754913330078125 L665.5259399414062,39.341514587402344 " stroke="#6E6E6E" fill="none" stroke-width="1" stroke-opacity="1" />
  <path d="M671.2258911132812,39.34992980957031 L665.5226440429688,41.5615119934082 L665.5291748046875,37.121517181396484 L671.2258911132812,39.34992980957031 " stroke="none" fill="#6E6E6E" fill-rule="evenodd" stroke-width="0" fill-opacity="1" />
  <path d="M671.2258911132812,39.34992980957031 L665.5226440429688,41.5615119934082 L665.5291748046875,37.121517181396484 L671.2258911132812,39.34992980957031 " stroke="#6E6E6E" fill="none" stroke-width="1" stroke-opacity="1" />
  <path d="M743.4813232421875,95.54637908935547 L754.8074951171875,95.74994659423828 " stroke="#6E6E6E" fill="none" stroke-width="1" stroke-opacity="1" />
  <path d="M760.5065307617188,95.85237884521484 L754.767578125,97.96958923339844 L754.8473510742188,93.53030395507812 L760.5065307617188,95.85237884521484 " stroke="none" fill="#6E6E6E" fill-rule="evenodd" stroke-width="0" fill-opacity="1" />
  <path d="M760.5065307617188,95.85237884521484 L754.767578125,97.96958923339844 L754.8473510742188,93.53030395507812 L760.5065307617188,95.85237884521484 " stroke="#6E6E6E" fill="none" stroke-width="1" stroke-opacity="1" />
  <path d="M650.0197143554688,97.01757049560547 L663.3854370117188,96.50922393798828 " stroke="#6E6E6E" fill="none" stroke-width="1" stroke-opacity="1" />
  <path d="M669.0813598632812,96.29259490966797 L663.4698486328125,98.72763061523438 L663.3010864257812,94.29083251953125 L669.0813598632812,96.29259490966797 " stroke="none" fill="#6E6E6E" fill-rule="evenodd" stroke-width="0" fill-opacity="1" />
  <path d="M669.0813598632812,96.29259490966797 L663.4698486328125,98.72763061523438 L663.3010864257812,94.29083251953125 L669.0813598632812,96.29259490966797 " stroke="#6E6E6E" fill="none" stroke-width="1" stroke-opacity="1" />
  <path d="M850.611328125,51.03407287597656 L866.14111328125,55.220741271972656 " stroke="#6E6E6E" fill="none" stroke-width="1" stroke-opacity="1" />
  <path d="M871.6445922851562,56.70442581176758 L865.563232421875,57.36421203613281 L866.7189331054688,53.07726287841797 L871.6445922851562,56.70442581176758 " stroke="none" fill="#6E6E6E" fill-rule="evenodd" stroke-width="0" fill-opacity="1" />
  <path d="M871.6445922851562,56.70442581176758 L865.563232421875,57.36421203613281 L866.7189331054688,53.07726287841797 L871.6445922851562,56.70442581176758 " stroke="#6E6E6E" fill="none" stroke-width="1" stroke-opacity="1" />
  <path d="M850.5932006835938,84.26325225830078 L866.1864624023438,79.57064819335938 " stroke="#6E6E6E" fill="none" stroke-width="1" stroke-opacity="1" />
  <path d="M871.6445922851562,77.92807006835938 L866.8261108398438,81.69647216796875 L865.546630859375,77.44482421875 L871.6445922851562,77.92807006835938 " stroke="none" fill="#6E6E6E" fill-rule="evenodd" stroke-width="0" fill-opacity="1" />
  <path d="M871.6445922851562,77.92807006835938 L866.8261108398438,81.69647216796875 L865.546630859375,77.44482421875 L871.6445922851562,77.92807006835938 " stroke="#6E6E6E" fill="none" stroke-width="1" stroke-opacity="1" />
  <path d="M112.9039306640625,15 L170.29605102539062,15 L170.29603576660156,15 C174.99261474609375,14.999992370605469 178.7999725341797,18.807327270507812 178.7999725341797,23.50393295288086 C178.7999725341797,23.503934860229492 178.7999725341797,23.503936767578125 178.7999725341797,23.503938674926758 L178.79998779296875,23.503936767578125 L178.79998779296875,53.89606475830078 L178.7999725341797,53.89605712890625 C178.7999725341797,58.5926513671875 174.99264526367188,62.399993896484375 170.29605102539062,62.39999771118164 L170.29605102539062,62.39999771118164 L112.9039306640625,62.39999771118164 L112.9039306640625,62.39999771118164 C108.20733642578125,62.39999771118164 104.39999389648438,58.59265899658203 104.39999389648438,53.89606475830078 L104.39999389648438,23.503936767578125 L104.39998626708984,23.50394058227539 C104.39998626708984,18.80734634399414 108.20732116699219,15.00000286102295 112.90391540527344,14.999999046325684 " stroke="none" fill="#E7E7E7" fill-rule="evenodd" stroke-width="0" fill-opacity="1" />
  <text x="20.308189392089844" y="35.57250213623047" dx="0" dy="0" font-family="Microsoft YaHei UI" font-size="7.200000171661381pt" fill="#000000" style="text-anchor:start" transform="matrix(0.750000 0.000000 0.000000 0.750000 104.39999389648438 15)">面转栅格</text>
  <path d="M112.9039306640625,15 L170.29605102539062,15 L170.29603576660156,15 C174.99261474609375,14.999992370605469 178.7999725341797,18.807327270507812 178.7999725341797,23.50393295288086 C178.7999725341797,23.503934860229492 178.7999725341797,23.503936767578125 178.7999725341797,23.503938674926758 L178.79998779296875,23.503936767578125 L178.79998779296875,53.89606475830078 L178.7999725341797,53.89605712890625 C178.7999725341797,58.5926513671875 174.99264526367188,62.399993896484375 170.29605102539062,62.39999771118164 L170.29605102539062,62.39999771118164 L112.9039306640625,62.39999771118164 L112.9039306640625,62.39999771118164 C108.20733642578125,62.39999771118164 104.39999389648438,58.59265899658203 104.39999389648438,53.89606475830078 L104.39999389648438,23.503936767578125 L104.39998626708984,23.50394058227539 C104.39998626708984,18.80734634399414 108.20732116699219,15.00000286102295 112.90391540527344,14.999999046325684 " stroke="none" fill="none" stroke-width="0.6" stroke-opacity="0" />
  <path d="M268.199951171875,38.69999313354492 C268.199951171875,51.78913879394531 251.5449676513672,62.399993896484375 231,62.39999771118164 C210.4550018310547,62.400001525878906 193.79998779296875,51.78915786743164 193.7999725341797,38.70001220703125 L193.7999725341797,38.700016021728516 C193.79995727539062,25.610868453979492 210.4549560546875,15.000008583068848 230.99993896484375,15 C251.54493713378906,14.99998950958252 268.199951171875,25.61083221435547 268.199951171875,38.69999694824219 C268.199951171875,38.69999694824219 268.199951171875,38.69999694824219 268.199951171875,38.69999694824219 " stroke="none" fill="#E7E7E7" fill-rule="evenodd" stroke-width="0" fill-opacity="1" />
  <text x="8.308188438415527" y="35.57250213623047" dx="0" dy="0" font-family="Microsoft YaHei UI" font-size="7.200000171661381pt" fill="#000000" style="text-anchor:start" transform="matrix(0.750000 0.000000 0.000000 0.750000 193.79998779296875 15)">建筑栅格数据</text>
  <path d="M268.199951171875,38.69999313354492 C268.199951171875,51.78913879394531 251.5449676513672,62.399993896484375 231,62.39999771118164 C210.4550018310547,62.400001525878906 193.79998779296875,51.78915786743164 193.7999725341797,38.70001220703125 L193.7999725341797,38.700016021728516 C193.79995727539062,25.610868453979492 210.4549560546875,15.000008583068848 230.99993896484375,15 C251.54493713378906,14.99998950958252 268.199951171875,25.61083221435547 268.199951171875,38.69999694824219 C268.199951171875,38.69999694824219 268.199951171875,38.69999694824219 268.199951171875,38.69999694824219 " stroke="none" fill="none" stroke-width="0.6" stroke-opacity="0" />
  <path d="M60.84653854370117,37.89877700805664 C60.84653854370117,50.98792266845703 36.213436126708984,61.59877395629883 5.8269805908203125,61.598777770996094 C-24.559490203857422,61.59878158569336 -49.19261169433594,50.98793029785156 -49.192623138427734,37.898780822753906 C-49.192623138427734,37.898780822753906 -49.192623138427734,37.898780822753906 -49.192623138427734,37.898780822753906 L-49.192630767822266,37.898799896240234 C-49.19265365600586,24.809650421142578 -24.559558868408203,14.198790550231934 5.8269195556640625,14.198781967163086 C36.21339797973633,14.198771476745605 60.84651565551758,24.809614181518555 60.84653854370117,37.898780822753906 C60.84653854370117,37.898780822753906 60.84653854370117,37.898780822753906 60.84653854370117,37.898780822753906 " stroke="none" fill="#E7E7E7" fill-rule="evenodd" stroke-width="0" fill-opacity="1" />
  <text x="32.06818771362305" y="35.57250213623047" dx="0" dy="0" font-family="Microsoft YaHei UI" font-size="7.200000171661381pt" fill="#000000" style="text-anchor:start" transform="matrix(0.750000 0.000000 0.000000 0.750000 -49.192623138427734 14.198781967163086)">建筑矢量数据</text>
  <path d="M60.84653854370117,37.89877700805664 C60.84653854370117,50.98792266845703 36.213436126708984,61.59877395629883 5.8269805908203125,61.598777770996094 C-24.559490203857422,61.59878158569336 -49.19261169433594,50.98793029785156 -49.192623138427734,37.898780822753906 C-49.192623138427734,37.898780822753906 -49.192623138427734,37.898780822753906 -49.192623138427734,37.898780822753906 L-49.192630767822266,37.898799896240234 C-49.19265365600586,24.809650421142578 -24.559558868408203,14.198790550231934 5.8269195556640625,14.198781967163086 C36.21339797973633,14.198771476745605 60.84651565551758,24.809614181518555 60.84653854370117,37.898780822753906 C60.84653854370117,37.898780822753906 60.84653854370117,37.898780822753906 60.84653854370117,37.898780822753906 " stroke="none" fill="none" stroke-width="0.6" stroke-opacity="0" />
  <path d="M112.9039306640625,77.4000015258789 L170.29605102539062,77.4000015258789 L170.29603576660156,77.4000015258789 C174.99261474609375,77.39999389648438 178.7999725341797,81.20732879638672 178.7999725341797,85.9039306640625 C178.7999725341797,85.9039306640625 178.7999725341797,85.90393829345703 178.7999725341797,85.90393829345703 L178.79998779296875,85.90393829345703 L178.79998779296875,116.29606628417969 L178.7999725341797,116.29605865478516 C178.7999725341797,120.9926528930664 174.99264526367188,124.79999542236328 170.29605102539062,124.79999542236328 L170.29605102539062,124.79999542236328 L112.9039306640625,124.79999542236328 L112.9039306640625,124.79999542236328 C108.20733642578125,124.79999542236328 104.39999389648438,120.99266052246094 104.39999389648438,116.29606628417969 L104.39999389648438,85.90393829345703 L104.39998626708984,85.90393829345703 C104.39998626708984,81.20734405517578 108.20732116699219,77.4000015258789 112.90391540527344,77.39999389648438 " stroke="none" fill="#E7E7E7" fill-rule="evenodd" stroke-width="0" fill-opacity="1" />
  <text x="14.308188438415527" y="35.57250213623047" dx="0" dy="0" font-family="Microsoft YaHei UI" font-size="7.200000171661381pt" fill="#000000" style="text-anchor:start" transform="matrix(0.750000 0.000000 0.000000 0.750000 104.39999389648438 77.4000015258789)">按掩膜提取</text>
  <path d="M112.9039306640625,77.4000015258789 L170.29605102539062,77.4000015258789 L170.29603576660156,77.4000015258789 C174.99261474609375,77.39999389648438 178.7999725341797,81.20732879638672 178.7999725341797,85.9039306640625 C178.7999725341797,85.9039306640625 178.7999725341797,85.90393829345703 178.7999725341797,85.90393829345703 L178.79998779296875,85.90393829345703 L178.79998779296875,116.29606628417969 L178.7999725341797,116.29605865478516 C178.7999725341797,120.9926528930664 174.99264526367188,124.79999542236328 170.29605102539062,124.79999542236328 L170.29605102539062,124.79999542236328 L112.9039306640625,124.79999542236328 L112.9039306640625,124.79999542236328 C108.20733642578125,124.79999542236328 104.39999389648438,120.99266052246094 104.39999389648438,116.29606628417969 L104.39999389648438,85.90393829345703 L104.39998626708984,85.90393829345703 C104.39998626708984,81.20734405517578 108.20732116699219,77.4000015258789 112.90391540527344,77.39999389648438 " stroke="none" fill="none" stroke-width="0.6" stroke-opacity="0" />
  <path d="M268.199951171875,101.09999084472656 C268.199951171875,114.18914031982422 251.5449676513672,124.79999542236328 231,124.79999542236328 C210.4550018310547,124.80000305175781 193.79998779296875,114.18915557861328 193.7999725341797,101.10001373291016 L193.7999725341797,101.10001373291016 C193.79995727539062,88.0108642578125 210.4549560546875,77.40000915527344 230.99993896484375,77.4000015258789 C251.54493713378906,77.39998626708984 268.199951171875,88.01083374023438 268.199951171875,101.0999984741211 C268.199951171875,101.0999984741211 268.199951171875,101.0999984741211 268.199951171875,101.0999984741211 " stroke="none" fill="#E7E7E7" fill-rule="evenodd" stroke-width="0" fill-opacity="1" />
  <text x="14.634855270385742" y="35.57250213623047" dx="0" dy="0" font-family="Microsoft YaHei UI" font-size="7.200000171661381pt" fill="#000000" style="text-anchor:start" transform="matrix(0.750000 0.000000 0.000000 0.750000 193.79998779296875 77.4000015258789)">掩膜后</text>
  <text x="53.29885482788086" y="36.89672088623047" dx="0" dy="0" font-family="Arial" font-size="7.200000171661381pt" fill="#000000" style="text-anchor:start" transform="matrix(0.750000 0.000000 0.000000 0.750000 193.79998779296875 77.4000015258789)">dem</text>
  <path d="M268.199951171875,101.09999084472656 C268.199951171875,114.18914031982422 251.5449676513672,124.79999542236328 231,124.79999542236328 C210.4550018310547,124.80000305175781 193.79998779296875,114.18915557861328 193.7999725341797,101.10001373291016 L193.7999725341797,101.10001373291016 C193.79995727539062,88.0108642578125 210.4549560546875,77.40000915527344 230.99993896484375,77.4000015258789 C251.54493713378906,77.39998626708984 268.199951171875,88.01083374023438 268.199951171875,101.0999984741211 C268.199951171875,101.0999984741211 268.199951171875,101.0999984741211 268.199951171875,101.0999984741211 " stroke="none" fill="none" stroke-width="0.6" stroke-opacity="0" />
  <path d="M64.36669158935547,97.52467346191406 C64.36669158935547,110.61382293701172 38.94558334350586,121.22467803955078 7.587066650390625,121.22467803955078 C-23.77147674560547,121.22468566894531 -49.19260787963867,110.61383056640625 -49.192623138427734,97.5246810913086 C-49.192623138427734,97.5246810913086 -49.192623138427734,97.5246810913086 -49.192623138427734,97.5246810913086 L-49.192630767822266,97.52469635009766 C-49.19265365600586,84.435546875 -23.77154541015625,73.82469177246094 7.586997985839844,73.8246841430664 C38.94553756713867,73.82466888427734 64.36666870117188,84.43551635742188 64.36669158935547,97.5246810913086 C64.36669158935547,97.5246810913086 64.36669158935547,97.5246810913086 64.36669158935547,97.5246810913086 " stroke="none" fill="#E7E7E7" fill-rule="evenodd" stroke-width="0" fill-opacity="1" />
  <text x="25.4055233001709" y="36.89672088623047" dx="0" dy="0" font-family="Arial" font-size="7.200000171661381pt" fill="#000000" style="text-anchor:start" transform="matrix(0.750000 0.000000 0.000000 0.750000 -49.192623138427734 73.8246841430664)">dem</text>
  <text x="46.08485412597656" y="35.57250213623047" dx="0" dy="0" font-family="Microsoft YaHei UI" font-size="7.200000171661381pt" fill="#000000" style="text-anchor:start" transform="matrix(0.750000 0.000000 0.000000 0.750000 -49.192623138427734 73.8246841430664)">数字高程模型</text>
  <path d="M64.36669158935547,97.52467346191406 C64.36669158935547,110.61382293701172 38.94558334350586,121.22467803955078 7.587066650390625,121.22467803955078 C-23.77147674560547,121.22468566894531 -49.19260787963867,110.61383056640625 -49.192623138427734,97.5246810913086 C-49.192623138427734,97.5246810913086 -49.192623138427734,97.5246810913086 -49.192623138427734,97.5246810913086 L-49.192630767822266,97.52469635009766 C-49.19265365600586,84.435546875 -23.77154541015625,73.82469177246094 7.586997985839844,73.8246841430664 C38.94553756713867,73.82466888427734 64.36666870117188,84.43551635742188 64.36669158935547,97.5246810913086 C64.36669158935547,97.5246810913086 64.36669158935547,97.5246810913086 64.36669158935547,97.5246810913086 " stroke="none" fill="none" stroke-width="0.6" stroke-opacity="0" />
  <path d="M301.3846435546875,75.22520446777344 L358.7767639160156,75.22520446777344 L358.7767333984375,75.22520446777344 C363.47332763671875,75.2251968383789 367.2806701660156,79.03253173828125 367.2806701660156,83.72913360595703 C367.2806701660156,83.72913360595703 367.2806701660156,83.72914123535156 367.2806701660156,83.72914123535156 L367.28070068359375,83.72914123535156 L367.28070068359375,114.12126922607422 L367.2806701660156,114.12126159667969 C367.2806701660156,118.81785583496094 363.4733581542969,122.62519836425781 358.7767639160156,122.62519836425781 L358.7767639160156,122.62519836425781 L301.3846435546875,122.62519836425781 L301.3846435546875,122.62519836425781 C296.68804931640625,122.62519836425781 292.8807067871094,118.81786346435547 292.8807067871094,114.12126922607422 L292.8807067871094,83.72914123535156 L292.88067626953125,83.72914123535156 C292.88067626953125,79.03254699707031 296.6880187988281,75.22520446777344 301.3846130371094,75.2251968383789 " stroke="none" fill="#E7E7E7" fill-rule="evenodd" stroke-width="0" fill-opacity="1" />
  <text x="20.308189392089844" y="35.57250213623047" dx="0" dy="0" font-family="Microsoft YaHei UI" font-size="7.200000171661381pt" fill="#000000" style="text-anchor:start" transform="matrix(0.750000 0.000000 0.000000 0.750000 292.8807067871094 75.22520446777344)">分区统计</text>
  <path d="M301.3846435546875,75.22520446777344 L358.7767639160156,75.22520446777344 L358.7767333984375,75.22520446777344 C363.47332763671875,75.2251968383789 367.2806701660156,79.03253173828125 367.2806701660156,83.72913360595703 C367.2806701660156,83.72913360595703 367.2806701660156,83.72914123535156 367.2806701660156,83.72914123535156 L367.28070068359375,83.72914123535156 L367.28070068359375,114.12126922607422 L367.2806701660156,114.12126159667969 C367.2806701660156,118.81785583496094 363.4733581542969,122.62519836425781 358.7767639160156,122.62519836425781 L358.7767639160156,122.62519836425781 L301.3846435546875,122.62519836425781 L301.3846435546875,122.62519836425781 C296.68804931640625,122.62519836425781 292.8807067871094,118.81786346435547 292.8807067871094,114.12126922607422 L292.8807067871094,83.72914123535156 L292.88067626953125,83.72914123535156 C292.88067626953125,79.03254699707031 296.6880187988281,75.22520446777344 301.3846130371094,75.2251968383789 " stroke="none" fill="none" stroke-width="0.6" stroke-opacity="0" />
  <path d="M466.07855224609375,98.9251937866211 C466.07855224609375,112.01434326171875 449.4235534667969,122.62519836425781 428.87860107421875,122.62519836425781 C408.3335876464844,122.62520599365234 391.6785888671875,112.01435852050781 391.6785583496094,98.92521667480469 L391.6785583496094,98.92521667480469 C391.6785583496094,85.83606719970703 408.33355712890625,75.22521209716797 428.8785400390625,75.22520446777344 C449.42352294921875,75.22518920898438 466.07855224609375,85.8360366821289 466.07855224609375,98.92520141601562 C466.07855224609375,98.92520141601562 466.07855224609375,98.92520141601562 466.07855224609375,98.92520141601562 " stroke="none" fill="#E7E7E7" fill-rule="evenodd" stroke-width="0" fill-opacity="1" />
  <text x="2.3081889152526855" y="28.672500610351562" dx="0" dy="0" font-family="Microsoft YaHei UI" font-size="7.200000171661381pt" fill="#000000" style="text-anchor:start" transform="matrix(0.750000 0.000000 0.000000 0.750000 391.6785888671875 75.22520446777344)">建筑区域平均后</text>
  <text x="26.634857177734375" y="42.47249984741211" dx="0" dy="0" font-family="Microsoft YaHei UI" font-size="7.200000171661381pt" fill="#000000" style="text-anchor:start" transform="matrix(0.750000 0.000000 0.000000 0.750000 391.6785888671875 75.22520446777344)">的</text>
  <text x="41.29885482788086" y="43.79671859741211" dx="0" dy="0" font-family="Arial" font-size="7.200000171661381pt" fill="#000000" style="text-anchor:start" transform="matrix(0.750000 0.000000 0.000000 0.750000 391.6785888671875 75.22520446777344)">dem</text>
  <path d="M466.07855224609375,98.9251937866211 C466.07855224609375,112.01434326171875 449.4235534667969,122.62519836425781 428.87860107421875,122.62519836425781 C408.3335876464844,122.62520599365234 391.6785888671875,112.01435852050781 391.6785583496094,98.92521667480469 L391.6785583496094,98.92521667480469 C391.6785583496094,85.83606719970703 408.33355712890625,75.22521209716797 428.8785400390625,75.22520446777344 C449.42352294921875,75.22518920898438 466.07855224609375,85.8360366821289 466.07855224609375,98.92520141601562 C466.07855224609375,98.92520141601562 466.07855224609375,98.92520141601562 466.07855224609375,98.92520141601562 " stroke="none" fill="none" stroke-width="0.6" stroke-opacity="0" />
  <path d="M491.8612060546875,75.6528549194336 L549.2532958984375,75.6528549194336 L549.2532958984375,75.6528549194336 C553.9498901367188,75.65284729003906 557.7572021484375,79.4601821899414 557.7572021484375,84.15678405761719 C557.7572021484375,84.15678405761719 557.7572021484375,84.15679168701172 557.7572021484375,84.15679168701172 L557.7572631835938,84.15679168701172 L557.7572631835938,114.54891967773438 L557.7572021484375,114.54891204833984 C557.7572021484375,119.2455062866211 553.9498901367188,123.05284881591797 549.2532958984375,123.05284881591797 L549.2532958984375,123.05284881591797 L491.8612060546875,123.05284881591797 L491.8612060546875,123.05284881591797 C487.16461181640625,123.05284881591797 483.3572692871094,119.24551391601562 483.3572692871094,114.54891967773438 L483.3572692871094,84.15679168701172 L483.35723876953125,84.15679168701172 C483.35723876953125,79.46019744873047 487.1645812988281,75.6528549194336 491.8611755371094,75.65284729003906 " stroke="none" fill="#E7E7E7" fill-rule="evenodd" stroke-width="0" fill-opacity="1" />
  <text x="26.308189392089844" y="35.57250213623047" dx="0" dy="0" font-family="Microsoft YaHei UI" font-size="7.200000171661381pt" fill="#000000" style="text-anchor:start" transform="matrix(0.750000 0.000000 0.000000 0.750000 483.3572692871094 75.6528549194336)">滤波器</text>
  <path d="M491.8612060546875,75.6528549194336 L549.2532958984375,75.6528549194336 L549.2532958984375,75.6528549194336 C553.9498901367188,75.65284729003906 557.7572021484375,79.4601821899414 557.7572021484375,84.15678405761719 C557.7572021484375,84.15678405761719 557.7572021484375,84.15679168701172 557.7572021484375,84.15679168701172 L557.7572631835938,84.15679168701172 L557.7572631835938,114.54891967773438 L557.7572021484375,114.54891204833984 C557.7572021484375,119.2455062866211 553.9498901367188,123.05284881591797 549.2532958984375,123.05284881591797 L549.2532958984375,123.05284881591797 L491.8612060546875,123.05284881591797 L491.8612060546875,123.05284881591797 C487.16461181640625,123.05284881591797 483.3572692871094,119.24551391601562 483.3572692871094,114.54891967773438 L483.3572692871094,84.15679168701172 L483.35723876953125,84.15679168701172 C483.35723876953125,79.46019744873047 487.1645812988281,75.6528549194336 491.8611755371094,75.65284729003906 " stroke="none" fill="none" stroke-width="0.6" stroke-opacity="0" />
  <path d="M650.1315307617188,98.42814636230469 C650.1315307617188,111.51729583740234 633.4765014648438,122.1281509399414 612.9315795898438,122.1281509399414 C592.3865356445312,122.12815856933594 575.7315673828125,111.5173110961914 575.7315063476562,98.42816925048828 L575.7315063476562,98.42816925048828 C575.7315063476562,85.33901977539062 592.3865356445312,74.72816467285156 612.9315185546875,74.72815704345703 C633.4765014648438,74.72814178466797 650.1315307617188,85.3389892578125 650.1315307617188,98.42815399169922 C650.1315307617188,98.42815399169922 650.1315307617188,98.42815399169922 650.1315307617188,98.42815399169922 " stroke="none" fill="#E7E7E7" fill-rule="evenodd" stroke-width="0" fill-opacity="1" />
  <text x="14.634855270385742" y="35.57250213623047" dx="0" dy="0" font-family="Microsoft YaHei UI" font-size="7.200000171661381pt" fill="#000000" style="text-anchor:start" transform="matrix(0.750000 0.000000 0.000000 0.750000 575.7315673828125 74.72815704345703)">平滑的</text>
  <text x="53.29885482788086" y="36.89672088623047" dx="0" dy="0" font-family="Arial" font-size="7.200000171661381pt" fill="#000000" style="text-anchor:start" transform="matrix(0.750000 0.000000 0.000000 0.750000 575.7315673828125 74.72815704345703)">dem</text>
  <path d="M650.1315307617188,98.42814636230469 C650.1315307617188,111.51729583740234 633.4765014648438,122.1281509399414 612.9315795898438,122.1281509399414 C592.3865356445312,122.12815856933594 575.7315673828125,111.5173110961914 575.7315063476562,98.42816925048828 L575.7315063476562,98.42816925048828 C575.7315063476562,85.33901977539062 592.3865356445312,74.72816467285156 612.9315185546875,74.72815704345703 C633.4765014648438,74.72814178466797 650.1315307617188,85.3389892578125 650.1315307617188,98.42815399169922 C650.1315307617188,98.42815399169922 650.1315307617188,98.42815399169922 650.1315307617188,98.42815399169922 " stroke="none" fill="none" stroke-width="0.6" stroke-opacity="0" />
  <path d="M679.7298583984375,15.704850196838379 L737.1220092773438,15.704850196838379 L737.1219482421875,15.704850196838379 C741.8185424804688,15.704842567443848 745.6259155273438,19.512178421020508 745.6259155273438,24.208784103393555 C745.6259155273438,24.208786010742188 745.6259155273438,24.20878791809082 745.6259155273438,24.20878791809082 L745.6259155273438,24.208786010742188 L745.6259155273438,54.600914001464844 L745.6259155273438,54.60090637207031 C745.6259155273438,59.29750061035156 741.818603515625,63.10484313964844 737.1220092773438,63.1048469543457 L737.1220092773438,63.1048469543457 L679.7298583984375,63.1048469543457 L679.7298583984375,63.1048469543457 C675.0332641601562,63.1048469543457 671.2259521484375,59.297508239746094 671.2259521484375,54.600914001464844 L671.2259521484375,24.208786010742188 L671.2258911132812,24.208791732788086 C671.2258911132812,19.512197494506836 675.0332641601562,15.704853057861328 679.7298583984375,15.704849243164062 " stroke="none" fill="#E7E7E7" fill-rule="evenodd" stroke-width="0" fill-opacity="1" />
  <text x="26.308189392089844" y="35.57250213623047" dx="0" dy="0" font-family="Microsoft YaHei UI" font-size="7.200000171661381pt" fill="#000000" style="text-anchor:start" transform="matrix(0.750000 0.000000 0.000000 0.750000 671.2259521484375 15.704850196838379)">重采样</text>
  <path d="M679.7298583984375,15.704850196838379 L737.1220092773438,15.704850196838379 L737.1219482421875,15.704850196838379 C741.8185424804688,15.704842567443848 745.6259155273438,19.512178421020508 745.6259155273438,24.208784103393555 C745.6259155273438,24.208786010742188 745.6259155273438,24.20878791809082 745.6259155273438,24.20878791809082 L745.6259155273438,24.208786010742188 L745.6259155273438,54.600914001464844 L745.6259155273438,54.60090637207031 C745.6259155273438,59.29750061035156 741.818603515625,63.10484313964844 737.1220092773438,63.1048469543457 L737.1220092773438,63.1048469543457 L679.7298583984375,63.1048469543457 L679.7298583984375,63.1048469543457 C675.0332641601562,63.1048469543457 671.2259521484375,59.297508239746094 671.2259521484375,54.600914001464844 L671.2259521484375,24.208786010742188 L671.2258911132812,24.208791732788086 C671.2258911132812,19.512197494506836 675.0332641601562,15.704853057861328 679.7298583984375,15.704849243164062 " stroke="none" fill="none" stroke-width="0.6" stroke-opacity="0" />
  <path d="M857.0123291015625,39.404842376708984 C857.0123291015625,52.49399185180664 834.83349609375,63.10484313964844 807.4745483398438,63.1048469543457 C780.1156005859375,63.10485076904297 757.936767578125,52.49399948120117 757.936767578125,39.40484619140625 C757.936767578125,39.40484619140625 757.936767578125,39.40484619140625 757.936767578125,39.40484619140625 L757.9367065429688,39.40486526489258 C757.9367065429688,26.315717697143555 780.1155395507812,15.704858779907227 807.4744873046875,15.704850196838379 C834.83349609375,15.704839706420898 857.0123291015625,26.315683364868164 857.0123291015625,39.40484619140625 C857.0123291015625,39.40484619140625 857.0123291015625,39.40484619140625 857.0123291015625,39.40484619140625 " stroke="none" fill="#E7E7E7" fill-rule="evenodd" stroke-width="0" fill-opacity="1" />
  <text x="15.758188247680664" y="35.57250213623047" dx="0" dy="0" font-family="Microsoft YaHei UI" font-size="7.200000171661381pt" fill="#000000" style="text-anchor:start" transform="matrix(0.750000 0.000000 0.000000 0.750000 757.936767578125 15.704850196838379)">建筑栅格数据</text>
  <text x="92.09019470214844" y="36.89672088623047" dx="0" dy="0" font-family="Arial" font-size="7.200000171661381pt" fill="#000000" style="text-anchor:start" transform="matrix(0.750000 0.000000 0.000000 0.750000 757.936767578125 15.704850196838379)"> </text>
  <text x="95.09352111816406" y="36.89672088623047" dx="0" dy="0" font-family="Arial" font-size="7.200000171661381pt" fill="#000000" style="text-anchor:start" transform="matrix(0.750000 0.000000 0.000000 0.750000 757.936767578125 15.704850196838379)">(2)</text>
  <path d="M857.0123291015625,39.404842376708984 C857.0123291015625,52.49399185180664 834.83349609375,63.10484313964844 807.4745483398438,63.1048469543457 C780.1156005859375,63.10485076904297 757.936767578125,52.49399948120117 757.936767578125,39.40484619140625 C757.936767578125,39.40484619140625 757.936767578125,39.40484619140625 757.936767578125,39.40484619140625 L757.9367065429688,39.40486526489258 C757.9367065429688,26.315717697143555 780.1155395507812,15.704858779907227 807.4744873046875,15.704850196838379 C834.83349609375,15.704839706420898 857.0123291015625,26.315683364868164 857.0123291015625,39.40484619140625 C857.0123291015625,39.40484619140625 857.0123291015625,39.40484619140625 857.0123291015625,39.40484619140625 " stroke="none" fill="none" stroke-width="0.6" stroke-opacity="0" />
  <path d="M677.5852661132812,71.1777572631836 L734.9774169921875,71.1777572631836 L734.9773559570312,71.1777572631836 C739.6739501953125,71.17774963378906 743.4813232421875,74.9850845336914 743.4813232421875,79.68168640136719 C743.4813232421875,79.68168640136719 743.4813232421875,79.68169403076172 743.4813232421875,79.68169403076172 L743.4813232421875,79.68169403076172 L743.4813232421875,110.07382202148438 L743.4813232421875,110.07381439208984 C743.4813232421875,114.7704086303711 739.6740112304688,118.57775115966797 734.9774169921875,118.57775115966797 L734.9774169921875,118.57775115966797 L677.5852661132812,118.57775115966797 L677.5852661132812,118.57775115966797 C672.888671875,118.57775115966797 669.0813598632812,114.77041625976562 669.0813598632812,110.07382202148438 L669.0813598632812,79.68169403076172 L669.081298828125,79.68169403076172 C669.081298828125,74.98509979248047 672.888671875,71.1777572631836 677.5852661132812,71.17774963378906 " stroke="none" fill="#E7E7E7" fill-rule="evenodd" stroke-width="0" fill-opacity="1" />
  <text x="17.308189392089844" y="35.57250213623047" dx="0" dy="0" font-family="Microsoft YaHei UI" font-size="7.200000171661381pt" fill="#000000" style="text-anchor:start" transform="matrix(0.750000 0.000000 0.000000 0.750000 669.0813598632812 71.1777572631836)">重采样</text>
  <text x="57.64018630981445" y="36.89672088623047" dx="0" dy="0" font-family="Arial" font-size="7.200000171661381pt" fill="#000000" style="text-anchor:start" transform="matrix(0.750000 0.000000 0.000000 0.750000 669.0813598632812 71.1777572631836)"> </text>
  <text x="60.64352035522461" y="36.89672088623047" dx="0" dy="0" font-family="Arial" font-size="7.200000171661381pt" fill="#000000" style="text-anchor:start" transform="matrix(0.750000 0.000000 0.000000 0.750000 669.0813598632812 71.1777572631836)">(2)</text>
  <path d="M677.5852661132812,71.1777572631836 L734.9774169921875,71.1777572631836 L734.9773559570312,71.1777572631836 C739.6739501953125,71.17774963378906 743.4813232421875,74.9850845336914 743.4813232421875,79.68168640136719 C743.4813232421875,79.68168640136719 743.4813232421875,79.68169403076172 743.4813232421875,79.68169403076172 L743.4813232421875,79.68169403076172 L743.4813232421875,110.07382202148438 L743.4813232421875,110.07381439208984 C743.4813232421875,114.7704086303711 739.6740112304688,118.57775115966797 734.9774169921875,118.57775115966797 L734.9774169921875,118.57775115966797 L677.5852661132812,118.57775115966797 L677.5852661132812,118.57775115966797 C672.888671875,118.57775115966797 669.0813598632812,114.77041625976562 669.0813598632812,110.07382202148438 L669.0813598632812,79.68169403076172 L669.081298828125,79.68169403076172 C669.081298828125,74.98509979248047 672.888671875,71.1777572631836 677.5852661132812,71.17774963378906 " stroke="none" fill="none" stroke-width="0.6" stroke-opacity="0" />
  <path d="M857.9370727539062,96.7271499633789 C857.9370727539062,109.81629943847656 836.1061401367188,120.42715454101562 809.1763916015625,120.42715454101562 C782.24658203125,120.42716217041016 760.4157104492188,109.8163070678711 760.4157104492188,96.72715759277344 C760.4157104492188,96.72715759277344 760.4157104492188,96.72715759277344 760.4157104492188,96.72715759277344 L760.4156494140625,96.7271728515625 C760.4156494140625,83.63802337646484 782.2465209960938,73.02716827392578 809.1763305664062,73.02716064453125 C836.1061401367188,73.02714538574219 857.9370727539062,83.63799285888672 857.9370727539062,96.72715759277344 C857.9370727539062,96.72715759277344 857.9370727539062,96.72715759277344 857.9370727539062,96.72715759277344 " stroke="none" fill="#E7E7E7" fill-rule="evenodd" stroke-width="0" fill-opacity="1" />
  <text x="0.048188984394073486" y="35.57250213623047" dx="0" dy="0" font-family="Microsoft YaHei UI" font-size="7.200000171661381pt" fill="#000000" style="text-anchor:start" transform="matrix(0.750000 0.000000 0.000000 0.750000 760.4157104492188 73.02716064453125)">模拟</text>
  <text x="26.712188720703125" y="36.89672088623047" dx="0" dy="0" font-family="Arial" font-size="7.200000171661381pt" fill="#000000" style="text-anchor:start" transform="matrix(0.750000 0.000000 0.000000 0.750000 760.4157104492188 73.02716064453125)">dem</text>
  <text x="47.39152145385742" y="35.57250213623047" dx="0" dy="0" font-family="Microsoft YaHei UI" font-size="7.200000171661381pt" fill="#000000" style="text-anchor:start" transform="matrix(0.750000 0.000000 0.000000 0.750000 760.4157104492188 73.02716064453125)">数字高程模型</text>
  <path d="M857.9370727539062,96.7271499633789 C857.9370727539062,109.81629943847656 836.1061401367188,120.42715454101562 809.1763916015625,120.42715454101562 C782.24658203125,120.42716217041016 760.4157104492188,109.8163070678711 760.4157104492188,96.72715759277344 C760.4157104492188,96.72715759277344 760.4157104492188,96.72715759277344 760.4157104492188,96.72715759277344 L760.4156494140625,96.7271728515625 C760.4156494140625,83.63802337646484 782.2465209960938,73.02716827392578 809.1763305664062,73.02716064453125 C836.1061401367188,73.02714538574219 857.9370727539062,83.63799285888672 857.9370727539062,96.72715759277344 C857.9370727539062,96.72715759277344 857.9370727539062,96.72715759277344 857.9370727539062,96.72715759277344 " stroke="none" fill="none" stroke-width="0.6" stroke-opacity="0" />
  <path d="M880.1485595703125,43.03316116333008 L937.5407104492188,43.03316116333008 L937.5406494140625,43.03316116333008 C942.2372436523438,43.03315353393555 946.0446166992188,46.84048843383789 946.0446166992188,51.53709411621094 C946.0446166992188,51.53709411621094 946.0446166992188,51.5370979309082 946.0446166992188,51.5370979309082 L946.0446166992188,51.5370979309082 L946.0446166992188,81.9292221069336 L946.0446166992188,81.92921447753906 C946.0446166992188,86.62580871582031 942.2373046875,90.43315124511719 937.5407104492188,90.43315887451172 L937.5407104492188,90.43315887451172 L880.1485595703125,90.43315887451172 L880.1485595703125,90.43315887451172 C875.4519653320312,90.43315887451172 871.6446533203125,86.62581634521484 871.6446533203125,81.9292221069336 L871.6446533203125,51.5370979309082 L871.6445922851562,51.53710174560547 C871.6445922851562,46.84050750732422 875.4519653320312,43.03316116333008 880.1485595703125,43.03315734863281 " stroke="none" fill="#E7E7E7" fill-rule="evenodd" stroke-width="0" fill-opacity="1" />
  <text x="38.308189392089844" y="35.57250213623047" dx="0" dy="0" font-family="Microsoft YaHei UI" font-size="7.200000171661381pt" fill="#000000" style="text-anchor:start" transform="matrix(0.750000 0.000000 0.000000 0.750000 871.6446533203125 43.03316116333008)">加</text>
  <path d="M880.1485595703125,43.03316116333008 L937.5407104492188,43.03316116333008 L937.5406494140625,43.03316116333008 C942.2372436523438,43.03315353393555 946.0446166992188,46.84048843383789 946.0446166992188,51.53709411621094 C946.0446166992188,51.53709411621094 946.0446166992188,51.5370979309082 946.0446166992188,51.5370979309082 L946.0446166992188,51.5370979309082 L946.0446166992188,81.9292221069336 L946.0446166992188,81.92921447753906 C946.0446166992188,86.62580871582031 942.2373046875,90.43315124511719 937.5407104492188,90.43315887451172 L937.5407104492188,90.43315887451172 L880.1485595703125,90.43315887451172 L880.1485595703125,90.43315887451172 C875.4519653320312,90.43315887451172 871.6446533203125,86.62581634521484 871.6446533203125,81.9292221069336 L871.6446533203125,51.5370979309082 L871.6445922851562,51.53710174560547 C871.6445922851562,46.84050750732422 875.4519653320312,43.03316116333008 880.1485595703125,43.03315734863281 " stroke="none" fill="none" stroke-width="0.6" stroke-opacity="0" />
  <path d="M1042.9271240234375,66.733154296875 C1042.9271240234375,79.82229614257812 1026.2720947265625,90.43315124511719 1005.7271728515625,90.43315887451172 C985.18212890625,90.43315887451172 968.5271606445312,79.82231903076172 968.527099609375,66.73316955566406 L968.527099609375,66.7331771850586 C968.527099609375,53.64402770996094 985.18212890625,43.03316879272461 1005.7271118164062,43.03316116333008 C1026.2720947265625,43.03314971923828 1042.9271240234375,53.64399337768555 1042.9271240234375,66.733154296875 C1042.9271240234375,66.733154296875 1042.9271240234375,66.733154296875 1042.9271240234375,66.733154296875 " stroke="none" fill="#E7E7E7" fill-rule="evenodd" stroke-width="0" fill-opacity="1" />
  <text x="2.974855899810791" y="28.672500610351562" dx="0" dy="0" font-family="Microsoft YaHei UI" font-size="7.200000171661381pt" fill="#000000" style="text-anchor:start" transform="matrix(0.750000 0.000000 0.000000 0.750000 968.5271606445312 43.03316116333008)">最终的模拟</text>
  <text x="65.63885498046875" y="29.996719360351562" dx="0" dy="0" font-family="Arial" font-size="7.200000171661381pt" fill="#000000" style="text-anchor:start" transform="matrix(0.750000 0.000000 0.000000 0.750000 968.5271606445312 43.03316116333008)">dsm</text>
  <text x="8.308188438415527" y="42.47249984741211" dx="0" dy="0" font-family="Microsoft YaHei UI" font-size="7.200000171661381pt" fill="#000000" style="text-anchor:start" transform="matrix(0.750000 0.000000 0.000000 0.750000 968.5271606445312 43.03316116333008)">数字表面模型</text>
  <path d="M1042.9271240234375,66.733154296875 C1042.9271240234375,79.82229614257812 1026.2720947265625,90.43315124511719 1005.7271728515625,90.43315887451172 C985.18212890625,90.43315887451172 968.5271606445312,79.82231903076172 968.527099609375,66.73316955566406 L968.527099609375,66.7331771850586 C968.527099609375,53.64402770996094 985.18212890625,43.03316879272461 1005.7271118164062,43.03316116333008 C1026.2720947265625,43.03314971923828 1042.9271240234375,53.64399337768555 1042.9271240234375,66.733154296875 C1042.9271240234375,66.733154296875 1042.9271240234375,66.733154296875 1042.9271240234375,66.733154296875 " stroke="none" fill="none" stroke-width="0.6" stroke-opacity="0" />
  <path d="M965.6644897460938,40.43088150024414 L971.2127075195312,40.43088150024414 L971.2127075195312,45.97907638549805 L965.6644897460938,45.97907638549805  z" stroke="none" fill="#FFFFFF" fill-rule="evenodd" stroke-width="0" fill-opacity="1" />
  <path d="M965.6644897460938,40.43088150024414 L971.2127075195312,40.43088150024414 L971.2127075195312,45.97907638549805 L965.6644897460938,45.97907638549805  z" stroke="#000000" fill="none" stroke-width="0.8" stroke-opacity="1" />
  <path d="M1039.640380859375,40.43088150024414 L1046.11328125,40.43088150024414 L1046.11328125,45.97907638549805 L1039.640380859375,45.97907638549805  z" stroke="none" fill="#FFFFFF" fill-rule="evenodd" stroke-width="0" fill-opacity="1" />
  <path d="M1039.640380859375,40.43088150024414 L1046.11328125,40.43088150024414 L1046.11328125,45.97907638549805 L1039.640380859375,45.97907638549805  z" stroke="#000000" fill="none" stroke-width="0.8" stroke-opacity="1" />
  <path d="M1039.640380859375,87.59053039550781 L1046.11328125,87.59053039550781 L1046.11328125,93.13872528076172 L1039.640380859375,93.13872528076172  z" stroke="none" fill="#FFFFFF" fill-rule="evenodd" stroke-width="0" fill-opacity="1" />
  <path d="M1039.640380859375,87.59053039550781 L1046.11328125,87.59053039550781 L1046.11328125,93.13872528076172 L1039.640380859375,93.13872528076172  z" stroke="#000000" fill="none" stroke-width="0.8" stroke-opacity="1" />
  <path d="M965.6644897460938,87.59053039550781 L971.2127075195312,87.59053039550781 L971.2127075195312,93.13872528076172 L965.6644897460938,93.13872528076172  z" stroke="none" fill="#FFFFFF" fill-rule="evenodd" stroke-width="0" fill-opacity="1" />
  <path d="M965.6644897460938,87.59053039550781 L971.2127075195312,87.59053039550781 L971.2127075195312,93.13872528076172 L965.6644897460938,93.13872528076172  z" stroke="#000000" fill="none" stroke-width="0.8" stroke-opacity="1" />
  <path d="M1002.6524658203125,40.43088150024414 L1008.20068359375,40.43088150024414 L1008.20068359375,45.97907638549805 L1002.6524658203125,45.97907638549805  z" stroke="none" fill="#FFFFFF" fill-rule="evenodd" stroke-width="0" fill-opacity="1" />
  <path d="M1002.6524658203125,40.43088150024414 L1008.20068359375,40.43088150024414 L1008.20068359375,45.97907638549805 L1002.6524658203125,45.97907638549805  z" stroke="#000000" fill="none" stroke-width="0.8" stroke-opacity="1" />
  <path d="M1039.640380859375,63.54835510253906 L1046.11328125,63.54835510253906 L1046.11328125,70.02124786376953 L1039.640380859375,70.02124786376953  z" stroke="none" fill="#FFFFFF" fill-rule="evenodd" stroke-width="0" fill-opacity="1" />
  <path d="M1039.640380859375,63.54835510253906 L1046.11328125,63.54835510253906 L1046.11328125,70.02124786376953 L1039.640380859375,70.02124786376953  z" stroke="#000000" fill="none" stroke-width="0.8" stroke-opacity="1" />
  <path d="M1002.6524658203125,87.59053039550781 L1008.20068359375,87.59053039550781 L1008.20068359375,93.13872528076172 L1002.6524658203125,93.13872528076172  z" stroke="none" fill="#FFFFFF" fill-rule="evenodd" stroke-width="0" fill-opacity="1" />
  <path d="M1002.6524658203125,87.59053039550781 L1008.20068359375,87.59053039550781 L1008.20068359375,93.13872528076172 L1002.6524658203125,93.13872528076172  z" stroke="#000000" fill="none" stroke-width="0.8" stroke-opacity="1" />
  <path d="M965.6644897460938,63.54835510253906 L971.2127075195312,63.54835510253906 L971.2127075195312,70.02124786376953 L965.6644897460938,70.02124786376953  z" stroke="none" fill="#FFFFFF" fill-rule="evenodd" stroke-width="0" fill-opacity="1" />
  <path d="M965.6644897460938,63.54835510253906 L971.2127075195312,63.54835510253906 L971.2127075195312,70.02124786376953 L965.6644897460938,70.02124786376953  z" stroke="#000000" fill="none" stroke-width="0.8" stroke-opacity="1" />
  <path d="M946.0446166992188,66.733154296875 L962.8271484375,66.733154296875 " stroke="#6E6E6E" fill="none" stroke-width="1" stroke-opacity="1" />
  <path d="M968.5271606445312,66.733154296875 L962.8271484375,68.95315551757812 L962.8271484375,64.5131607055664 L968.5271606445312,66.733154296875 " stroke="none" fill="#6E6E6E" fill-rule="evenodd" stroke-width="0" fill-opacity="1" />
  <path d="M968.5271606445312,66.733154296875 L962.8271484375,68.95315551757812 L962.8271484375,64.5131607055664 L968.5271606445312,66.733154296875 " stroke="#6E6E6E" fill="none" stroke-width="1" stroke-opacity="1" />
</svg>